<svg width="239" height="200" viewBox="0 0 239 200" fill="none" xmlns="http://www.w3.org/2000/svg">
<rect x="30" y="60" width="180" height="80" fill="white"/>
<rect x="40" y="90" width="120" height="4" fill="#DDE2E7"/>
<rect x="40" y="110" width="100" height="4" fill="#DDE2E7"/>
<rect x="40" y="100" width="140" height="4" fill="#DDE2E7"/>
<path d="M40.8452 73.3636H42.9631V81.3778C42.9631 81.9678 42.8471 82.4451 42.6151 82.8097C42.383 83.1742 42.05 83.4411 41.6158 83.6101C41.1849 83.7791 40.6695 83.8636 40.0696 83.8636C39.9967 83.8636 39.9271 83.862 39.8608 83.8587C39.7912 83.8587 39.7183 83.857 39.642 83.8537V82.1982C39.6984 82.2015 39.7481 82.2031 39.7912 82.2031C39.831 82.2064 39.8741 82.2081 39.9205 82.2081C40.2618 82.2081 40.5005 82.1352 40.6364 81.9893C40.7756 81.8468 40.8452 81.6314 40.8452 81.343V73.3636ZM41.8991 72.3793C41.5876 72.3793 41.3191 72.2749 41.0938 72.0661C40.8684 71.8539 40.7557 71.6004 40.7557 71.3054C40.7557 71.0137 40.8684 70.7635 41.0938 70.5547C41.3191 70.3426 41.5876 70.2365 41.8991 70.2365C42.2173 70.2365 42.4875 70.3426 42.7095 70.5547C42.9349 70.7635 43.0476 71.0137 43.0476 71.3054C43.0476 71.6004 42.9349 71.8539 42.7095 72.0661C42.4875 72.2749 42.2173 72.3793 41.8991 72.3793ZM49.5566 77.7486V73.3636H51.6745V81H49.6412V79.6129H49.5616C49.3893 80.0604 49.1026 80.42 48.7015 80.6918C48.3038 80.9635 47.8182 81.0994 47.2449 81.0994C46.7344 81.0994 46.2853 80.9834 45.8975 80.7514C45.5098 80.5194 45.2065 80.1896 44.9877 79.7621C44.7723 79.3345 44.6629 78.8224 44.6596 78.2259V73.3636H46.7775V77.848C46.7808 78.2988 46.9018 78.6551 47.1404 78.9169C47.3791 79.1787 47.6989 79.3097 48.1 79.3097C48.3552 79.3097 48.5938 79.2517 48.8159 79.1357C49.0379 79.0163 49.2169 78.8407 49.3528 78.6087C49.492 78.3767 49.56 78.09 49.5566 77.7486ZM53.3686 81V73.3636H55.3871V74.7109H55.4766C55.6357 74.2635 55.9008 73.9105 56.272 73.652C56.6432 73.3935 57.0874 73.2642 57.6044 73.2642C58.1281 73.2642 58.5739 73.3951 58.9418 73.657C59.3097 73.9155 59.5549 74.2668 59.6776 74.7109H59.7571C59.9129 74.2734 60.1946 73.9238 60.6023 73.6619C61.0133 73.3968 61.4988 73.2642 62.0589 73.2642C62.7715 73.2642 63.3499 73.4912 63.794 73.9453C64.2415 74.3961 64.4652 75.0357 64.4652 75.8643V81H62.3523V76.282C62.3523 75.8577 62.2396 75.5395 62.0142 75.3274C61.7888 75.1153 61.5071 75.0092 61.169 75.0092C60.7846 75.0092 60.4846 75.1319 60.2692 75.3771C60.0537 75.6191 59.946 75.9389 59.946 76.3366V81H57.8928V76.2372C57.8928 75.8627 57.785 75.5644 57.5696 75.3423C57.3575 75.1203 57.0774 75.0092 56.7294 75.0092C56.4941 75.0092 56.282 75.0689 56.093 75.1882C55.9074 75.3042 55.7599 75.4683 55.6506 75.6804C55.5412 75.8892 55.4865 76.1345 55.4865 76.4162V81H53.3686ZM66.1779 81V70.8182H68.2958V74.6463H68.3604C68.4532 74.4408 68.5875 74.232 68.7631 74.0199C68.9421 73.8045 69.1741 73.6255 69.4592 73.483C69.7475 73.3371 70.1055 73.2642 70.533 73.2642C71.0898 73.2642 71.6036 73.41 72.0742 73.7017C72.5449 73.9901 72.921 74.4259 73.2028 75.0092C73.4845 75.5893 73.6254 76.3168 73.6254 77.1918C73.6254 78.0436 73.4878 78.7628 73.2127 79.3494C72.9409 79.9328 72.5697 80.3752 72.0991 80.6768C71.6317 80.9751 71.1081 81.1243 70.5281 81.1243C70.1171 81.1243 69.7674 81.0563 69.479 80.9205C69.194 80.7846 68.9603 80.6139 68.7781 80.4084C68.5958 80.1996 68.4566 79.9891 68.3604 79.777H68.266V81H66.1779ZM68.2511 77.1818C68.2511 77.6359 68.314 78.032 68.44 78.37C68.5659 78.7081 68.7482 78.9716 68.9869 79.1605C69.2255 79.3461 69.5155 79.4389 69.8569 79.4389C70.2016 79.4389 70.4933 79.3445 70.7319 79.1555C70.9705 78.9633 71.1512 78.6982 71.2738 78.3601C71.3997 78.0187 71.4627 77.6259 71.4627 77.1818C71.4627 76.741 71.4014 76.3532 71.2788 76.0185C71.1561 75.6837 70.9755 75.4219 70.7369 75.233C70.4982 75.044 70.2049 74.9496 69.8569 74.9496C69.5122 74.9496 69.2205 75.0407 68.9819 75.223C68.7466 75.4053 68.5659 75.6638 68.44 75.9986C68.314 76.3333 68.2511 76.7277 68.2511 77.1818ZM78.4888 81.1491C77.7166 81.1491 77.0487 80.9851 76.4853 80.657C75.9251 80.3255 75.4926 79.8648 75.1877 79.2749C74.8828 78.6816 74.7303 77.9938 74.7303 77.2116C74.7303 76.4228 74.8828 75.7334 75.1877 75.1435C75.4926 74.5502 75.9251 74.0895 76.4853 73.7614C77.0487 73.4299 77.7166 73.2642 78.4888 73.2642C79.2611 73.2642 79.9273 73.4299 80.4874 73.7614C81.0508 74.0895 81.485 74.5502 81.79 75.1435C82.0949 75.7334 82.2473 76.4228 82.2473 77.2116C82.2473 77.9938 82.0949 78.6816 81.79 79.2749C81.485 79.8648 81.0508 80.3255 80.4874 80.657C79.9273 80.9851 79.2611 81.1491 78.4888 81.1491ZM78.4988 79.5085C78.8501 79.5085 79.1434 79.4091 79.3787 79.2102C79.6141 79.008 79.7914 78.733 79.9107 78.3849C80.0333 78.0369 80.0946 77.6409 80.0946 77.1967C80.0946 76.7526 80.0333 76.3565 79.9107 76.0085C79.7914 75.6605 79.6141 75.3854 79.3787 75.1832C79.1434 74.9811 78.8501 74.88 78.4988 74.88C78.1441 74.88 77.8458 74.9811 77.6039 75.1832C77.3652 75.3854 77.1846 75.6605 77.062 76.0085C76.9426 76.3565 76.883 76.7526 76.883 77.1967C76.883 77.6409 76.9426 78.0369 77.062 78.3849C77.1846 78.733 77.3652 79.008 77.6039 79.2102C77.8458 79.4091 78.1441 79.5085 78.4988 79.5085ZM87.6863 73.3636V74.9545H83.0875V73.3636H87.6863ZM84.1316 71.5341H86.2495V78.6534C86.2495 78.849 86.2793 79.0014 86.339 79.1108C86.3986 79.2169 86.4815 79.2914 86.5875 79.3345C86.6969 79.3776 86.8229 79.3991 86.9654 79.3991C87.0648 79.3991 87.1642 79.3909 87.2637 79.3743C87.3631 79.3544 87.4393 79.3395 87.4924 79.3295L87.8255 80.9055C87.7194 80.9387 87.5703 80.9768 87.378 81.0199C87.1858 81.0663 86.9521 81.0945 86.677 81.1044C86.1666 81.1243 85.7192 81.0563 85.3347 80.9006C84.9535 80.7448 84.6569 80.5028 84.4448 80.1747C84.2327 79.8466 84.1283 79.4323 84.1316 78.9318V71.5341ZM89.0659 81V73.3636H91.1191V74.696H91.1987C91.3379 74.2221 91.5716 73.8641 91.8997 73.6222C92.2278 73.3769 92.6056 73.2543 93.0332 73.2543C93.1393 73.2543 93.2536 73.2609 93.3762 73.2741C93.4989 73.2874 93.6066 73.3056 93.6994 73.3288V75.2081C93.6 75.1783 93.4624 75.1518 93.2868 75.1286C93.1111 75.1054 92.9503 75.0938 92.8045 75.0938C92.493 75.0938 92.2145 75.1617 91.9693 75.2976C91.7273 75.4302 91.5351 75.6158 91.3926 75.8544C91.2534 76.093 91.1838 76.3681 91.1838 76.6797V81H89.0659ZM97.8892 81.1491C97.117 81.1491 96.4491 80.9851 95.8857 80.657C95.3255 80.3255 94.893 79.8648 94.5881 79.2749C94.2831 78.6816 94.1307 77.9938 94.1307 77.2116C94.1307 76.4228 94.2831 75.7334 94.5881 75.1435C94.893 74.5502 95.3255 74.0895 95.8857 73.7614C96.4491 73.4299 97.117 73.2642 97.8892 73.2642C98.6615 73.2642 99.3277 73.4299 99.8878 73.7614C100.451 74.0895 100.885 74.5502 101.19 75.1435C101.495 75.7334 101.648 76.4228 101.648 77.2116C101.648 77.9938 101.495 78.6816 101.19 79.2749C100.885 79.8648 100.451 80.3255 99.8878 80.657C99.3277 80.9851 98.6615 81.1491 97.8892 81.1491ZM97.8991 79.5085C98.2505 79.5085 98.5438 79.4091 98.7791 79.2102C99.0144 79.008 99.1918 78.733 99.3111 78.3849C99.4337 78.0369 99.495 77.6409 99.495 77.1967C99.495 76.7526 99.4337 76.3565 99.3111 76.0085C99.1918 75.6605 99.0144 75.3854 98.7791 75.1832C98.5438 74.9811 98.2505 74.88 97.8991 74.88C97.5445 74.88 97.2462 74.9811 97.0043 75.1832C96.7656 75.3854 96.585 75.6605 96.4624 76.0085C96.343 76.3565 96.2834 76.7526 96.2834 77.1967C96.2834 77.6409 96.343 78.0369 96.4624 78.3849C96.585 78.733 96.7656 79.008 97.0043 79.2102C97.2462 79.4091 97.5445 79.5085 97.8991 79.5085ZM105.143 76.5852V81H103.025V73.3636H105.043V74.7109H105.133C105.302 74.2668 105.585 73.9155 105.983 73.657C106.381 73.3951 106.863 73.2642 107.43 73.2642C107.96 73.2642 108.422 73.3802 108.817 73.6122C109.211 73.8442 109.518 74.1757 109.737 74.6065C109.955 75.0341 110.065 75.5445 110.065 76.1378V81H107.947V76.5156C107.95 76.0483 107.831 75.6837 107.589 75.4219C107.347 75.1567 107.014 75.0241 106.589 75.0241C106.304 75.0241 106.053 75.0855 105.834 75.2081C105.618 75.3307 105.449 75.5097 105.327 75.745C105.207 75.977 105.146 76.2571 105.143 76.5852Z" fill="black"/>
<rect x="40" y="120" width="30" height="10" fill="#409EFF"/>
</svg>
