<svg width="239" height="200" viewBox="0 0 239 200" fill="none" xmlns="http://www.w3.org/2000/svg">
<rect x="89" y="69" width="60" height="80" fill="white"/>
<path d="M95.1705 59.321L93.5085 59.4233C93.4801 59.2812 93.419 59.1534 93.3253 59.0398C93.2315 58.9233 93.108 58.831 92.9545 58.7628C92.804 58.6918 92.6236 58.6562 92.4134 58.6562C92.1321 58.6562 91.8949 58.7159 91.7017 58.8352C91.5085 58.9517 91.4119 59.108 91.4119 59.304C91.4119 59.4602 91.4744 59.5923 91.5994 59.7003C91.7244 59.8082 91.9389 59.8949 92.2429 59.9602L93.4276 60.1989C94.0639 60.3295 94.5384 60.5398 94.8509 60.8295C95.1634 61.1193 95.3196 61.5 95.3196 61.9716C95.3196 62.4006 95.1932 62.777 94.9403 63.1009C94.6903 63.4247 94.3466 63.6776 93.9091 63.8594C93.4744 64.0384 92.973 64.1278 92.4048 64.1278C91.5384 64.1278 90.848 63.9474 90.3338 63.5866C89.8224 63.223 89.5227 62.7287 89.4347 62.1037L91.2202 62.0099C91.2741 62.2741 91.4048 62.4759 91.6122 62.6151C91.8196 62.7514 92.0852 62.8196 92.4091 62.8196C92.7273 62.8196 92.983 62.7585 93.1761 62.6364C93.3722 62.5114 93.4716 62.3509 93.4744 62.1548C93.4716 61.9901 93.402 61.8551 93.2656 61.75C93.1293 61.642 92.919 61.5597 92.6349 61.5028L91.5014 61.277C90.8622 61.1491 90.3864 60.9276 90.0739 60.6122C89.7642 60.2969 89.6094 59.8949 89.6094 59.4062C89.6094 58.9858 89.723 58.6236 89.9503 58.3196C90.1804 58.0156 90.5028 57.7812 90.9176 57.6165C91.3352 57.4517 91.8239 57.3693 92.3835 57.3693C93.2102 57.3693 93.8608 57.544 94.3352 57.8935C94.8125 58.2429 95.0909 58.7187 95.1705 59.321ZM96.4627 64V57.4545H98.2781V64H96.4627ZM97.3746 56.6108C97.1048 56.6108 96.8732 56.5213 96.68 56.3423C96.4897 56.1605 96.3945 55.9432 96.3945 55.6903C96.3945 55.4403 96.4897 55.2259 96.68 55.0469C96.8732 54.8651 97.1048 54.7741 97.3746 54.7741C97.6445 54.7741 97.8746 54.8651 98.065 55.0469C98.2582 55.2259 98.3548 55.4403 98.3548 55.6903C98.3548 55.9432 98.2582 56.1605 98.065 56.3423C97.8746 56.5213 97.6445 56.6108 97.3746 56.6108ZM102.144 64.1065C101.647 64.1065 101.197 63.9787 100.793 63.723C100.393 63.4645 100.075 63.0852 99.8388 62.5852C99.6058 62.0824 99.4893 61.4659 99.4893 60.7358C99.4893 59.9858 99.6101 59.3622 99.8516 58.8651C100.093 58.3651 100.414 57.9915 100.815 57.7443C101.218 57.4943 101.66 57.3693 102.14 57.3693C102.506 57.3693 102.812 57.4318 103.056 57.5568C103.303 57.679 103.502 57.8324 103.653 58.017C103.806 58.1989 103.923 58.3778 104.002 58.554H104.058V55.2727H105.869V64H104.079V62.9517H104.002C103.917 63.1335 103.796 63.3139 103.64 63.4929C103.487 63.669 103.286 63.8153 103.039 63.9318C102.795 64.0483 102.496 64.1065 102.144 64.1065ZM102.719 62.6619C103.012 62.6619 103.259 62.5824 103.461 62.4233C103.665 62.2614 103.822 62.0355 103.93 61.7457C104.04 61.456 104.096 61.1165 104.096 60.7273C104.096 60.3381 104.042 60 103.934 59.7131C103.826 59.4261 103.67 59.2045 103.465 59.0483C103.261 58.892 103.012 58.8139 102.719 58.8139C102.421 58.8139 102.17 58.8949 101.965 59.0568C101.761 59.2187 101.606 59.4432 101.501 59.7301C101.396 60.017 101.343 60.3494 101.343 60.7273C101.343 61.108 101.396 61.4446 101.501 61.7372C101.609 62.027 101.763 62.2543 101.965 62.419C102.17 62.581 102.421 62.6619 102.719 62.6619ZM110.344 64.1278C109.671 64.1278 109.091 63.9915 108.605 63.7188C108.123 63.4432 107.75 63.054 107.489 62.5511C107.228 62.0455 107.097 61.4474 107.097 60.7571C107.097 60.0838 107.228 59.4929 107.489 58.9844C107.75 58.4759 108.118 58.0795 108.593 57.7955C109.07 57.5114 109.63 57.3693 110.272 57.3693C110.703 57.3693 111.105 57.4389 111.478 57.5781C111.853 57.7145 112.179 57.9205 112.458 58.196C112.739 58.4716 112.958 58.8182 113.114 59.2358C113.27 59.6506 113.348 60.1364 113.348 60.6932V61.1918H107.821V60.0668H111.64C111.64 59.8054 111.583 59.5739 111.469 59.3722C111.355 59.1705 111.198 59.0128 110.996 58.8991C110.797 58.7827 110.566 58.7244 110.301 58.7244C110.026 58.7244 109.782 58.7884 109.569 58.9162C109.358 59.0412 109.194 59.2102 109.074 59.4233C108.955 59.6335 108.894 59.8679 108.891 60.1264V61.196C108.891 61.5199 108.951 61.7997 109.07 62.0355C109.192 62.2713 109.364 62.4531 109.586 62.581C109.807 62.7088 110.07 62.7727 110.374 62.7727C110.576 62.7727 110.76 62.7443 110.928 62.6875C111.096 62.6307 111.239 62.5455 111.358 62.4318C111.478 62.3182 111.569 62.179 111.631 62.0142L113.31 62.125C113.225 62.5284 113.05 62.8807 112.786 63.1818C112.525 63.4801 112.186 63.7131 111.772 63.8807C111.36 64.0455 110.884 64.1278 110.344 64.1278ZM114.567 64V55.2727H116.382V58.554H116.438C116.517 58.3778 116.632 58.1989 116.783 58.017C116.936 57.8324 117.135 57.679 117.38 57.5568C117.627 57.4318 117.934 57.3693 118.3 57.3693C118.777 57.3693 119.218 57.4943 119.621 57.7443C120.025 57.9915 120.347 58.3651 120.588 58.8651C120.83 59.3622 120.951 59.9858 120.951 60.7358C120.951 61.4659 120.833 62.0824 120.597 62.5852C120.364 63.0852 120.046 63.4645 119.642 63.723C119.242 63.9787 118.793 64.1065 118.296 64.1065C117.944 64.1065 117.644 64.0483 117.397 63.9318C117.152 63.8153 116.952 63.669 116.796 63.4929C116.64 63.3139 116.52 63.1335 116.438 62.9517H116.357V64H114.567ZM116.344 60.7273C116.344 61.1165 116.398 61.456 116.506 61.7457C116.614 62.0355 116.77 62.2614 116.975 62.4233C117.179 62.5824 117.428 62.6619 117.721 62.6619C118.016 62.6619 118.266 62.581 118.471 62.419C118.675 62.2543 118.83 62.027 118.935 61.7372C119.043 61.4446 119.097 61.108 119.097 60.7273C119.097 60.3494 119.044 60.017 118.939 59.7301C118.834 59.4432 118.679 59.2187 118.475 59.0568C118.27 58.8949 118.019 58.8139 117.721 58.8139C117.425 58.8139 117.175 58.892 116.971 59.0483C116.769 59.2045 116.614 59.4261 116.506 59.7131C116.398 60 116.344 60.3381 116.344 60.7273ZM124.028 64.1236C123.611 64.1236 123.239 64.0511 122.912 63.9062C122.585 63.7585 122.327 63.5412 122.136 63.2543C121.949 62.9645 121.855 62.6037 121.855 62.1719C121.855 61.8082 121.922 61.5028 122.055 61.2557C122.189 61.0085 122.371 60.8097 122.601 60.6591C122.831 60.5085 123.092 60.3949 123.385 60.3182C123.68 60.2415 123.99 60.1875 124.314 60.1562C124.695 60.1165 125.001 60.0795 125.234 60.0455C125.467 60.0085 125.636 59.9545 125.741 59.8835C125.847 59.8125 125.899 59.7074 125.899 59.5682V59.5426C125.899 59.2727 125.814 59.0639 125.643 58.9162C125.476 58.7685 125.237 58.6946 124.928 58.6946C124.601 58.6946 124.341 58.767 124.148 58.9119C123.955 59.054 123.827 59.233 123.764 59.4489L122.085 59.3125C122.17 58.9148 122.338 58.571 122.588 58.2812C122.838 57.9886 123.161 57.7642 123.555 57.608C123.953 57.4489 124.413 57.3693 124.936 57.3693C125.3 57.3693 125.648 57.4119 125.98 57.4972C126.315 57.5824 126.612 57.7145 126.871 57.8935C127.132 58.0724 127.338 58.3026 127.489 58.5838C127.639 58.8622 127.714 59.196 127.714 59.5852V64H125.993V63.0923H125.942C125.837 63.2969 125.696 63.4773 125.52 63.6335C125.344 63.7869 125.132 63.9077 124.885 63.9957C124.638 64.081 124.352 64.1236 124.028 64.1236ZM124.548 62.8707C124.815 62.8707 125.051 62.8182 125.256 62.7131C125.46 62.6051 125.621 62.4602 125.737 62.2784C125.854 62.0966 125.912 61.8906 125.912 61.6605V60.9659C125.855 61.0028 125.777 61.0369 125.678 61.0682C125.581 61.0966 125.472 61.1236 125.349 61.1491C125.227 61.1719 125.105 61.1932 124.983 61.2131C124.861 61.2301 124.75 61.2457 124.651 61.2599C124.438 61.2912 124.251 61.3409 124.092 61.4091C123.933 61.4773 123.81 61.5696 123.722 61.6861C123.634 61.7997 123.589 61.9418 123.589 62.1122C123.589 62.3594 123.679 62.5483 123.858 62.679C124.04 62.8068 124.27 62.8707 124.548 62.8707ZM129.123 64V57.4545H130.883V58.5966H130.951C131.07 58.1903 131.271 57.8835 131.552 57.6761C131.833 57.4659 132.157 57.3608 132.523 57.3608C132.614 57.3608 132.712 57.3665 132.817 57.3778C132.923 57.3892 133.015 57.4048 133.094 57.4247V59.0355C133.009 59.0099 132.891 58.9872 132.741 58.9673C132.59 58.9474 132.452 58.9375 132.327 58.9375C132.06 58.9375 131.822 58.9957 131.612 59.1122C131.404 59.2259 131.239 59.3849 131.117 59.5895C130.998 59.794 130.938 60.0298 130.938 60.2969V64H129.123Z" fill="black"/>
<rect x="95" y="79" width="40" height="4" fill="#DDE2E7"/>
<rect x="95" y="119" width="40" height="4" fill="#DDE2E7"/>
<rect x="95" y="111" width="40" height="4" fill="#409EFF"/>
<rect x="95" y="87" width="20" height="4" fill="#DDE2E7"/>
<rect x="95" y="95" width="20" height="4" fill="#DDE2E7"/>
<rect x="95" y="103" width="20" height="4" fill="#DDE2E7"/>
<rect x="95" y="135" width="20" height="4" fill="#DDE2E7"/>
<rect x="95" y="127" width="20" height="4" fill="#DDE2E7"/>
</svg>
