<svg width="239" height="200" viewBox="0 0 239 200" fill="none" xmlns="http://www.w3.org/2000/svg">
<rect x="9" y="78" width="220" height="40" fill="white"/>
<rect x="14" y="88" width="20" height="4" rx="2" fill="#DDE2E7"/>
<rect x="123" y="88" width="20" height="4" rx="2" fill="#DDE2E7"/>
<rect x="92" y="96" width="20" height="4" rx="2" fill="#DDE2E7"/>
<rect x="181" y="88" width="20" height="4" rx="2" fill="#DDE2E7"/>
<rect x="150" y="96" width="20" height="4" rx="2" fill="#DDE2E7"/>
<rect x="204" y="88" width="20" height="4" rx="2" fill="#DDE2E7"/>
<rect x="196" y="96" width="28" height="4" rx="2" fill="#DDE2E7"/>
<rect x="179" y="104" width="28" height="4" rx="2" fill="#DDE2E7"/>
<rect x="173" y="96" width="20" height="4" rx="2" fill="#DDE2E7"/>
<rect x="210" y="104" width="14" height="4" rx="2" fill="#DDE2E7"/>
<rect x="146" y="88" width="32" height="4" rx="2" fill="#DDE2E7"/>
<rect x="115" y="96" width="32" height="4" rx="2" fill="#DDE2E7"/>
<rect x="143" y="104" width="32" height="4" rx="2" fill="#DDE2E7"/>
<rect x="14" y="96" width="32" height="4" rx="2" fill="#DDE2E7"/>
<rect x="37" y="88" width="40" height="4" rx="2" fill="#DDE2E7"/>
<rect x="14" y="104" width="40" height="4" rx="2" fill="#DDE2E7"/>
<rect x="80" y="88" width="40" height="4" rx="2" fill="#DDE2E7"/>
<rect x="57" y="104" width="40" height="4" rx="2" fill="#DDE2E7"/>
<rect x="100" y="104" width="40" height="4" rx="2" fill="#DDE2E7"/>
<rect x="49" y="96" width="40" height="4" rx="2" fill="#DDE2E7"/>
</svg>
