<svg width="239" height="200" viewBox="0 0 239 200" fill="none" xmlns="http://www.w3.org/2000/svg">
<rect x="70" y="70" width="100" height="80" fill="white"/>
<rect x="80" y="128" width="80" height="10" fill="#409EFF"/>
<path d="M111.379 88V83.6364H112.302V87.2393H114.173V88H111.379ZM116.245 88.0639C115.914 88.0639 115.628 87.9936 115.387 87.853C115.146 87.7109 114.961 87.5135 114.83 87.2607C114.7 87.0064 114.634 86.7116 114.634 86.3764C114.634 86.0384 114.7 85.7429 114.83 85.4901C114.961 85.2358 115.146 85.0384 115.387 84.8977C115.628 84.7557 115.914 84.6847 116.245 84.6847C116.576 84.6847 116.862 84.7557 117.102 84.8977C117.343 85.0384 117.529 85.2358 117.66 85.4901C117.791 85.7429 117.856 86.0384 117.856 86.3764C117.856 86.7116 117.791 87.0064 117.66 87.2607C117.529 87.5135 117.343 87.7109 117.102 87.853C116.862 87.9936 116.576 88.0639 116.245 88.0639ZM116.249 87.3608C116.4 87.3608 116.526 87.3182 116.627 87.233C116.727 87.1463 116.803 87.0284 116.855 86.8793C116.907 86.7301 116.933 86.5604 116.933 86.37C116.933 86.1797 116.907 86.0099 116.855 85.8608C116.803 85.7116 116.727 85.5937 116.627 85.5071C116.526 85.4205 116.4 85.3771 116.249 85.3771C116.097 85.3771 115.97 85.4205 115.866 85.5071C115.764 85.5937 115.686 85.7116 115.634 85.8608C115.583 86.0099 115.557 86.1797 115.557 86.37C115.557 86.5604 115.583 86.7301 115.634 86.8793C115.686 87.0284 115.764 87.1463 115.866 87.233C115.97 87.3182 116.097 87.3608 116.249 87.3608ZM119.921 89.2955C119.627 89.2955 119.374 89.255 119.164 89.174C118.955 89.0945 118.789 88.9858 118.666 88.848C118.542 88.7102 118.462 88.5554 118.425 88.3835L119.264 88.2706C119.29 88.3359 119.33 88.397 119.386 88.4538C119.441 88.5107 119.514 88.5561 119.605 88.5902C119.698 88.6257 119.81 88.6435 119.942 88.6435C120.139 88.6435 120.302 88.5952 120.43 88.4986C120.559 88.4034 120.624 88.2436 120.624 88.0192V87.4205H120.585C120.546 87.5114 120.486 87.5973 120.406 87.6783C120.327 87.7592 120.225 87.8253 120.1 87.8764C119.975 87.9276 119.825 87.9531 119.652 87.9531C119.406 87.9531 119.183 87.8963 118.981 87.7827C118.781 87.6676 118.621 87.4922 118.502 87.2564C118.384 87.0192 118.325 86.7195 118.325 86.3572C118.325 85.9865 118.385 85.6768 118.506 85.4283C118.627 85.1797 118.787 84.9936 118.987 84.87C119.189 84.7464 119.41 84.6847 119.65 84.6847C119.833 84.6847 119.987 84.7159 120.11 84.7784C120.234 84.8395 120.333 84.9162 120.409 85.0085C120.485 85.0994 120.544 85.1889 120.585 85.277H120.619V84.7273H121.521V88.032C121.521 88.3104 121.453 88.5433 121.316 88.7308C121.18 88.9183 120.991 89.0589 120.749 89.1527C120.509 89.2479 120.233 89.2955 119.921 89.2955ZM119.94 87.2713C120.086 87.2713 120.21 87.2351 120.311 87.1626C120.413 87.0888 120.491 86.9837 120.545 86.8473C120.6 86.7095 120.628 86.5447 120.628 86.353C120.628 86.1612 120.601 85.995 120.547 85.8544C120.493 85.7124 120.415 85.6023 120.313 85.5241C120.21 85.446 120.086 85.407 119.94 85.407C119.791 85.407 119.665 85.4474 119.563 85.5284C119.46 85.608 119.383 85.7187 119.33 85.8608C119.278 86.0028 119.252 86.1669 119.252 86.353C119.252 86.5419 119.278 86.7053 119.33 86.843C119.384 86.9794 119.462 87.0852 119.563 87.1605C119.665 87.2344 119.791 87.2713 119.94 87.2713ZM123.632 88V84.7273H124.539V88H123.632ZM124.088 84.3054C123.953 84.3054 123.837 84.2607 123.74 84.1712C123.645 84.0803 123.598 83.9716 123.598 83.8452C123.598 83.7202 123.645 83.6129 123.74 83.5234C123.837 83.4325 123.953 83.3871 124.088 83.3871C124.223 83.3871 124.338 83.4325 124.433 83.5234C124.529 83.6129 124.578 83.7202 124.578 83.8452C124.578 83.9716 124.529 84.0803 124.433 84.1712C124.338 84.2607 124.223 84.3054 124.088 84.3054ZM126.174 86.108V88H125.267V84.7273H126.132V85.3047H126.17C126.242 85.1143 126.364 84.9638 126.534 84.853C126.705 84.7408 126.911 84.6847 127.154 84.6847C127.382 84.6847 127.58 84.7344 127.749 84.8338C127.918 84.9332 128.049 85.0753 128.143 85.2599C128.237 85.4432 128.284 85.6619 128.284 85.9162V88H127.376V86.0781C127.377 85.8778 127.326 85.7216 127.222 85.6094C127.119 85.4957 126.976 85.4389 126.794 85.4389C126.672 85.4389 126.564 85.4652 126.47 85.5178C126.378 85.5703 126.306 85.647 126.253 85.7479C126.202 85.8473 126.176 85.9673 126.174 86.108Z" fill="black"/>
<path d="M81.2358 95.0426C81.0114 95.0426 80.8182 94.9972 80.6562 94.9062C80.4953 94.8144 80.3712 94.6847 80.2841 94.517C80.197 94.3485 80.1534 94.1491 80.1534 93.919C80.1534 93.6946 80.197 93.4976 80.2841 93.3281C80.3712 93.1586 80.4938 93.0265 80.652 92.9318C80.8111 92.8371 80.9976 92.7898 81.2116 92.7898C81.3556 92.7898 81.4896 92.813 81.6136 92.8594C81.7386 92.9048 81.8475 92.9735 81.9403 93.0653C82.0341 93.1572 82.107 93.2727 82.1591 93.4119C82.2112 93.5502 82.2372 93.7121 82.2372 93.8977V94.0639H80.3949V93.6889H81.6676C81.6676 93.6018 81.6487 93.5246 81.6108 93.4574C81.5729 93.3902 81.5204 93.3376 81.4531 93.2997C81.3868 93.2609 81.3097 93.2415 81.2216 93.2415C81.1297 93.2415 81.0483 93.2628 80.9773 93.3054C80.9072 93.3471 80.8523 93.4034 80.8125 93.4744C80.7727 93.5445 80.7524 93.6226 80.7514 93.7088V94.0653C80.7514 94.1733 80.7713 94.2666 80.8111 94.3452C80.8518 94.4238 80.9091 94.4844 80.983 94.527C81.0568 94.5696 81.1444 94.5909 81.2457 94.5909C81.313 94.5909 81.3745 94.5814 81.4304 94.5625C81.4863 94.5436 81.5341 94.5152 81.5739 94.4773C81.6136 94.4394 81.6439 94.393 81.6648 94.3381L82.2244 94.375C82.196 94.5095 82.1378 94.6269 82.0497 94.7273C81.9626 94.8267 81.8499 94.9044 81.7116 94.9602C81.5743 95.0152 81.4157 95.0426 81.2358 95.0426ZM82.6321 95V92.8182H83.2088V93.2031H83.2344C83.2798 93.0753 83.3556 92.9744 83.4616 92.9006C83.5677 92.8267 83.6946 92.7898 83.8423 92.7898C83.992 92.7898 84.1193 92.8272 84.2244 92.902C84.3295 92.9759 84.3996 93.0762 84.4347 93.2031H84.4574C84.5019 93.0781 84.5824 92.9782 84.6989 92.9034C84.8163 92.8277 84.955 92.7898 85.1151 92.7898C85.3187 92.7898 85.4839 92.8546 85.6108 92.9844C85.7386 93.1132 85.8026 93.2959 85.8026 93.5327V95H85.1989V93.652C85.1989 93.5308 85.1667 93.4399 85.1023 93.3793C85.0379 93.3187 84.9574 93.2884 84.8608 93.2884C84.7509 93.2884 84.6652 93.3234 84.6037 93.3935C84.5421 93.4626 84.5114 93.554 84.5114 93.6676V95H83.9247V93.6392C83.9247 93.5322 83.8939 93.447 83.8324 93.3835C83.7718 93.3201 83.6918 93.2884 83.5923 93.2884C83.5251 93.2884 83.4645 93.3054 83.4105 93.3395C83.3575 93.3726 83.3153 93.4195 83.2841 93.4801C83.2528 93.5398 83.2372 93.6098 83.2372 93.6903V95H82.6321ZM86.9027 95.0412C86.7635 95.0412 86.6394 95.017 86.5305 94.9688C86.4216 94.9195 86.3355 94.8471 86.272 94.7514C86.2095 94.6548 86.1783 94.5346 86.1783 94.3906C86.1783 94.2694 86.2005 94.1676 86.245 94.0852C86.2895 94.0028 86.3501 93.9366 86.4268 93.8864C86.5036 93.8362 86.5907 93.7983 86.6882 93.7727C86.7867 93.7472 86.8899 93.7292 86.9979 93.7188C87.1248 93.7055 87.227 93.6932 87.3047 93.6818C87.3823 93.6695 87.4387 93.6515 87.4737 93.6278C87.5088 93.6042 87.5263 93.5691 87.5263 93.5227V93.5142C87.5263 93.4242 87.4979 93.3546 87.4411 93.3054C87.3852 93.2562 87.3056 93.2315 87.2024 93.2315C87.0935 93.2315 87.0069 93.2557 86.9425 93.304C86.8781 93.3513 86.8355 93.411 86.8146 93.483L86.255 93.4375C86.2834 93.3049 86.3393 93.1903 86.4226 93.0938C86.5059 92.9962 86.6134 92.9214 86.745 92.8693C86.8776 92.8163 87.031 92.7898 87.2053 92.7898C87.3265 92.7898 87.4425 92.804 87.5533 92.8324C87.665 92.8608 87.764 92.9048 87.8501 92.9645C87.9373 93.0241 88.0059 93.1009 88.0561 93.1946C88.1063 93.2874 88.1314 93.3987 88.1314 93.5284V95H87.5575V94.6974H87.5405C87.5054 94.7656 87.4586 94.8258 87.3999 94.8778C87.3411 94.929 87.2706 94.9692 87.1882 94.9986C87.1058 95.027 87.0107 95.0412 86.9027 95.0412ZM87.076 94.6236C87.165 94.6236 87.2436 94.6061 87.3118 94.571C87.38 94.535 87.4335 94.4867 87.4723 94.4261C87.5111 94.3655 87.5305 94.2969 87.5305 94.2202V93.9886C87.5116 94.0009 87.4856 94.0123 87.4524 94.0227C87.4202 94.0322 87.3838 94.0412 87.343 94.0497C87.3023 94.0573 87.2616 94.0644 87.2209 94.071C87.1802 94.0767 87.1432 94.0819 87.1101 94.0866C87.0391 94.0971 86.977 94.1136 86.924 94.1364C86.871 94.1591 86.8298 94.1899 86.8004 94.2287C86.7711 94.2666 86.7564 94.3139 86.7564 94.3707C86.7564 94.4531 86.7862 94.5161 86.8459 94.5597C86.9065 94.6023 86.9832 94.6236 87.076 94.6236ZM88.6009 95V92.8182H89.206V95H88.6009ZM88.9048 92.5369C88.8149 92.5369 88.7377 92.5071 88.6733 92.4474C88.6098 92.3868 88.5781 92.3144 88.5781 92.2301C88.5781 92.1468 88.6098 92.0753 88.6733 92.0156C88.7377 91.955 88.8149 91.9247 88.9048 91.9247C88.9948 91.9247 89.0715 91.955 89.1349 92.0156C89.1993 92.0753 89.2315 92.1468 89.2315 92.2301C89.2315 92.3144 89.1993 92.3868 89.1349 92.4474C89.0715 92.5071 88.9948 92.5369 88.9048 92.5369ZM90.2958 92.0909V95H89.6907V92.0909H90.2958Z" fill="black"/>
<path d="M80.2415 112.818V109.818H80.8381V110.185H80.8651C80.8916 110.126 80.9299 110.066 80.9801 110.006C81.0313 109.944 81.0975 109.893 81.179 109.852C81.2614 109.811 81.3636 109.79 81.4858 109.79C81.6449 109.79 81.7917 109.831 81.9261 109.915C82.0606 109.997 82.1681 110.122 82.2486 110.288C82.3291 110.454 82.3693 110.662 82.3693 110.912C82.3693 111.155 82.33 111.361 82.2514 111.528C82.1738 111.695 82.0677 111.821 81.9332 111.908C81.7997 111.993 81.6501 112.036 81.4844 112.036C81.367 112.036 81.267 112.016 81.1847 111.977C81.1032 111.938 81.0365 111.89 80.9844 111.831C80.9323 111.771 80.8925 111.711 80.8651 111.651H80.8466V112.818H80.2415ZM80.8338 110.909C80.8338 111.039 80.8518 111.152 80.8878 111.249C80.9238 111.345 80.9759 111.42 81.044 111.474C81.1122 111.527 81.1951 111.554 81.2926 111.554C81.3911 111.554 81.4744 111.527 81.5426 111.473C81.6108 111.418 81.6624 111.342 81.6974 111.246C81.7334 111.148 81.7514 111.036 81.7514 110.909C81.7514 110.783 81.7339 110.672 81.6989 110.577C81.6638 110.481 81.6122 110.406 81.544 110.352C81.4759 110.298 81.392 110.271 81.2926 110.271C81.1941 110.271 81.1108 110.297 81.0426 110.349C80.9754 110.402 80.9238 110.475 80.8878 110.571C80.8518 110.667 80.8338 110.779 80.8338 110.909ZM83.3949 112.041C83.2557 112.041 83.1316 112.017 83.0227 111.969C82.9138 111.92 82.8277 111.847 82.7642 111.751C82.7017 111.655 82.6705 111.535 82.6705 111.391C82.6705 111.269 82.6927 111.168 82.7372 111.085C82.7817 111.003 82.8423 110.937 82.919 110.886C82.9957 110.836 83.0829 110.798 83.1804 110.773C83.2789 110.747 83.3821 110.729 83.4901 110.719C83.617 110.705 83.7192 110.693 83.7969 110.682C83.8745 110.67 83.9309 110.652 83.9659 110.628C84.0009 110.604 84.0185 110.569 84.0185 110.523V110.514C84.0185 110.424 83.9901 110.355 83.9332 110.305C83.8774 110.256 83.7978 110.232 83.6946 110.232C83.5857 110.232 83.4991 110.256 83.4347 110.304C83.3703 110.351 83.3277 110.411 83.3068 110.483L82.7472 110.438C82.7756 110.305 82.8314 110.19 82.9148 110.094C82.9981 109.996 83.1056 109.921 83.2372 109.869C83.3698 109.816 83.5232 109.79 83.6974 109.79C83.8187 109.79 83.9347 109.804 84.0455 109.832C84.1572 109.861 84.2562 109.905 84.3423 109.964C84.4295 110.024 84.4981 110.101 84.5483 110.195C84.5985 110.287 84.6236 110.399 84.6236 110.528V112H84.0497V111.697H84.0327C83.9976 111.766 83.9508 111.826 83.892 111.878C83.8333 111.929 83.7628 111.969 83.6804 111.999C83.598 112.027 83.5028 112.041 83.3949 112.041ZM83.5682 111.624C83.6572 111.624 83.7358 111.606 83.804 111.571C83.8722 111.535 83.9257 111.487 83.9645 111.426C84.0033 111.366 84.0227 111.297 84.0227 111.22V110.989C84.0038 111.001 83.9777 111.012 83.9446 111.023C83.9124 111.032 83.8759 111.041 83.8352 111.05C83.7945 111.057 83.7538 111.064 83.7131 111.071C83.6723 111.077 83.6354 111.082 83.6023 111.087C83.5313 111.097 83.4692 111.114 83.4162 111.136C83.3632 111.159 83.322 111.19 83.2926 111.229C83.2633 111.267 83.2486 111.314 83.2486 111.371C83.2486 111.453 83.2784 111.516 83.3381 111.56C83.3987 111.602 83.4754 111.624 83.5682 111.624ZM86.9084 110.44L86.3544 110.474C86.3449 110.427 86.3246 110.384 86.2933 110.347C86.2621 110.308 86.2209 110.277 86.1697 110.254C86.1196 110.231 86.0594 110.219 85.9893 110.219C85.8956 110.219 85.8165 110.239 85.7521 110.278C85.6877 110.317 85.6555 110.369 85.6555 110.435C85.6555 110.487 85.6764 110.531 85.718 110.567C85.7597 110.603 85.8312 110.632 85.9325 110.653L86.3274 110.733C86.5395 110.777 86.6977 110.847 86.8018 110.943C86.906 111.04 86.9581 111.167 86.9581 111.324C86.9581 111.467 86.916 111.592 86.8317 111.7C86.7483 111.808 86.6338 111.893 86.4879 111.953C86.343 112.013 86.1759 112.043 85.9865 112.043C85.6977 112.043 85.4676 111.982 85.2962 111.862C85.1257 111.741 85.0258 111.576 84.9964 111.368L85.5916 111.337C85.6096 111.425 85.6532 111.492 85.7223 111.538C85.7914 111.584 85.88 111.607 85.9879 111.607C86.094 111.607 86.1792 111.586 86.2436 111.545C86.3089 111.504 86.3421 111.45 86.343 111.385C86.3421 111.33 86.3189 111.285 86.2734 111.25C86.228 111.214 86.1579 111.187 86.0632 111.168L85.6854 111.092C85.4723 111.05 85.3137 110.976 85.2095 110.871C85.1063 110.766 85.0547 110.632 85.0547 110.469C85.0547 110.329 85.0926 110.208 85.1683 110.107C85.245 110.005 85.3525 109.927 85.4908 109.872C85.63 109.817 85.7929 109.79 85.9794 109.79C86.255 109.79 86.4718 109.848 86.63 109.964C86.7891 110.081 86.8819 110.24 86.9084 110.44ZM89.1545 110.44L88.6005 110.474C88.591 110.427 88.5707 110.384 88.5394 110.347C88.5082 110.308 88.467 110.277 88.4158 110.254C88.3656 110.231 88.3055 110.219 88.2354 110.219C88.1417 110.219 88.0626 110.239 87.9982 110.278C87.9338 110.317 87.9016 110.369 87.9016 110.435C87.9016 110.487 87.9225 110.531 87.9641 110.567C88.0058 110.603 88.0773 110.632 88.1786 110.653L88.5735 110.733C88.7856 110.777 88.9438 110.847 89.0479 110.943C89.1521 111.04 89.2042 111.167 89.2042 111.324C89.2042 111.467 89.1621 111.592 89.0778 111.7C88.9944 111.808 88.8799 111.893 88.734 111.953C88.5891 112.013 88.422 112.043 88.2326 112.043C87.9438 112.043 87.7137 111.982 87.5423 111.862C87.3718 111.741 87.2719 111.576 87.2425 111.368L87.8377 111.337C87.8557 111.425 87.8993 111.492 87.9684 111.538C88.0375 111.584 88.1261 111.607 88.234 111.607C88.3401 111.607 88.4253 111.586 88.4897 111.545C88.555 111.504 88.5882 111.45 88.5891 111.385C88.5882 111.33 88.565 111.285 88.5195 111.25C88.4741 111.214 88.404 111.187 88.3093 111.168L87.9315 111.092C87.7184 111.05 87.5598 110.976 87.4556 110.871C87.3524 110.766 87.3008 110.632 87.3008 110.469C87.3008 110.329 87.3387 110.208 87.4144 110.107C87.4911 110.005 87.5986 109.927 87.7369 109.872C87.8761 109.817 88.0389 109.79 88.2255 109.79C88.5011 109.79 88.7179 109.848 88.8761 109.964C89.0352 110.081 89.128 110.24 89.1545 110.44ZM90.0156 112L89.4219 109.818H90.0341L90.3722 111.284H90.392L90.7443 109.818H91.3452L91.7031 111.276H91.7216L92.054 109.818H92.6648L92.0724 112H91.4318L91.0568 110.628H91.0298L90.6548 112H90.0156ZM93.9187 112.043C93.698 112.043 93.5072 111.996 93.3462 111.902C93.1862 111.807 93.0626 111.676 92.9755 111.507C92.8884 111.338 92.8448 111.141 92.8448 110.918C92.8448 110.692 92.8884 110.495 92.9755 110.327C93.0626 110.157 93.1862 110.026 93.3462 109.932C93.5072 109.837 93.698 109.79 93.9187 109.79C94.1393 109.79 94.3297 109.837 94.4897 109.932C94.6507 110.026 94.7747 110.157 94.8619 110.327C94.949 110.495 94.9925 110.692 94.9925 110.918C94.9925 111.141 94.949 111.338 94.8619 111.507C94.7747 111.676 94.6507 111.807 94.4897 111.902C94.3297 111.996 94.1393 112.043 93.9187 112.043ZM93.9215 111.574C94.0219 111.574 94.1057 111.545 94.1729 111.489C94.2402 111.431 94.2908 111.352 94.3249 111.253C94.36 111.153 94.3775 111.04 94.3775 110.913C94.3775 110.786 94.36 110.673 94.3249 110.574C94.2908 110.474 94.2402 110.396 94.1729 110.338C94.1057 110.28 94.0219 110.251 93.9215 110.251C93.8202 110.251 93.735 110.28 93.6658 110.338C93.5977 110.396 93.546 110.474 93.511 110.574C93.4769 110.673 93.4599 110.786 93.4599 110.913C93.4599 111.04 93.4769 111.153 93.511 111.253C93.546 111.352 93.5977 111.431 93.6658 111.489C93.735 111.545 93.8202 111.574 93.9215 111.574ZM95.386 112V109.818H95.9727V110.199H95.9954C96.0352 110.063 96.1019 109.961 96.1957 109.892C96.2894 109.822 96.3974 109.787 96.5195 109.787C96.5498 109.787 96.5825 109.789 96.6175 109.793C96.6526 109.796 96.6834 109.802 96.7099 109.808V110.345C96.6815 110.337 96.6422 110.329 96.592 110.322C96.5418 110.316 96.4959 110.312 96.4542 110.312C96.3652 110.312 96.2856 110.332 96.2156 110.371C96.1464 110.409 96.0915 110.462 96.0508 110.53C96.011 110.598 95.9911 110.677 95.9911 110.766V112H95.386ZM97.7251 112.036C97.5594 112.036 97.4093 111.993 97.2749 111.908C97.1413 111.821 97.0353 111.695 96.9567 111.528C96.879 111.361 96.8402 111.155 96.8402 110.912C96.8402 110.662 96.8804 110.454 96.9609 110.288C97.0414 110.122 97.1484 109.997 97.282 109.915C97.4164 109.831 97.5637 109.79 97.7237 109.79C97.8459 109.79 97.9477 109.811 98.0291 109.852C98.1115 109.893 98.1778 109.944 98.228 110.006C98.2791 110.066 98.3179 110.126 98.3445 110.185H98.3629V109.091H98.9666V112H98.37V111.651H98.3445C98.3161 111.711 98.2758 111.771 98.2237 111.831C98.1726 111.89 98.1058 111.938 98.0234 111.977C97.942 112.016 97.8426 112.036 97.7251 112.036ZM97.9169 111.554C98.0144 111.554 98.0968 111.527 98.1641 111.474C98.2322 111.42 98.2843 111.345 98.3203 111.249C98.3572 111.152 98.3757 111.039 98.3757 110.909C98.3757 110.779 98.3577 110.667 98.3217 110.571C98.2857 110.475 98.2337 110.402 98.1655 110.349C98.0973 110.297 98.0144 110.271 97.9169 110.271C97.8175 110.271 97.7337 110.298 97.6655 110.352C97.5973 110.406 97.5457 110.481 97.5107 110.577C97.4756 110.672 97.4581 110.783 97.4581 110.909C97.4581 111.036 97.4756 111.148 97.5107 111.246C97.5466 111.342 97.5982 111.418 97.6655 111.473C97.7337 111.527 97.8175 111.554 97.9169 111.554Z" fill="black"/>
<rect x="80.5" y="98.5" width="79" height="7" fill="white" stroke="#DDE2E7"/>
<rect x="80.5" y="115.5" width="79" height="7" fill="white" stroke="#DDE2E7"/>
</svg>
