<svg width="239" height="200" viewBox="0 0 239 200" fill="none" xmlns="http://www.w3.org/2000/svg">
<rect x="49" y="60" width="140" height="80" fill="white"/>
<rect x="99" y="72" width="40" height="4" fill="#DDE2E7"/>
<path d="M64.8466 82.7386V84H64.2415V81.8182H64.8182V82.2031H64.8438C64.892 82.0762 64.973 81.9759 65.0866 81.902C65.2003 81.8272 65.3381 81.7898 65.5 81.7898C65.6515 81.7898 65.7836 81.8229 65.8963 81.8892C66.009 81.9555 66.0966 82.0502 66.1591 82.1733C66.2216 82.2955 66.2528 82.4413 66.2528 82.6108V84H65.6477V82.7188C65.6487 82.5852 65.6146 82.4811 65.5455 82.4062C65.4763 82.3305 65.3812 82.2926 65.2599 82.2926C65.1785 82.2926 65.1065 82.3101 65.044 82.3452C64.9825 82.3802 64.9342 82.4313 64.8991 82.4986C64.8651 82.5649 64.8475 82.6449 64.8466 82.7386ZM67.3519 84.0412C67.2127 84.0412 67.0887 84.017 66.9798 83.9688C66.8709 83.9195 66.7847 83.8471 66.7212 83.7514C66.6587 83.6548 66.6275 83.5346 66.6275 83.3906C66.6275 83.2694 66.6497 83.1676 66.6942 83.0852C66.7388 83.0028 66.7994 82.9366 66.8761 82.8864C66.9528 82.8362 67.0399 82.7983 67.1374 82.7727C67.2359 82.7472 67.3391 82.7292 67.4471 82.7188C67.574 82.7055 67.6763 82.6932 67.7539 82.6818C67.8316 82.6695 67.8879 82.6515 67.9229 82.6278C67.958 82.6042 67.9755 82.5691 67.9755 82.5227V82.5142C67.9755 82.4242 67.9471 82.3546 67.8903 82.3054C67.8344 82.2562 67.7549 82.2315 67.6516 82.2315C67.5427 82.2315 67.4561 82.2557 67.3917 82.304C67.3273 82.3513 67.2847 82.411 67.2638 82.483L66.7042 82.4375C66.7326 82.3049 66.7885 82.1903 66.8718 82.0938C66.9551 81.9962 67.0626 81.9214 67.1942 81.8693C67.3268 81.8163 67.4802 81.7898 67.6545 81.7898C67.7757 81.7898 67.8917 81.804 68.0025 81.8324C68.1142 81.8608 68.2132 81.9048 68.2994 81.9645C68.3865 82.0241 68.4551 82.1009 68.5053 82.1946C68.5555 82.2874 68.5806 82.3987 68.5806 82.5284V84H68.0067V83.6974H67.9897C67.9547 83.7656 67.9078 83.8258 67.8491 83.8778C67.7904 83.929 67.7198 83.9692 67.6374 83.9986C67.555 84.027 67.4599 84.0412 67.3519 84.0412ZM67.5252 83.6236C67.6142 83.6236 67.6928 83.6061 67.761 83.571C67.8292 83.535 67.8827 83.4867 67.9215 83.4261C67.9603 83.3655 67.9798 83.2969 67.9798 83.2202V82.9886C67.9608 83.0009 67.9348 83.0123 67.9016 83.0227C67.8694 83.0322 67.833 83.0412 67.7923 83.0497C67.7515 83.0573 67.7108 83.0644 67.6701 83.071C67.6294 83.0767 67.5924 83.0819 67.5593 83.0866C67.4883 83.0971 67.4263 83.1136 67.3732 83.1364C67.3202 83.1591 67.279 83.1899 67.2496 83.2287C67.2203 83.2666 67.2056 83.3139 67.2056 83.3707C67.2056 83.4531 67.2354 83.5161 67.2951 83.5597C67.3557 83.6023 67.4324 83.6236 67.5252 83.6236ZM69.0501 84V81.8182H69.6268V82.2031H69.6523C69.6978 82.0753 69.7736 81.9744 69.8796 81.9006C69.9857 81.8267 70.1126 81.7898 70.2603 81.7898C70.4099 81.7898 70.5373 81.8272 70.6424 81.902C70.7475 81.9759 70.8176 82.0762 70.8526 82.2031H70.8754C70.9199 82.0781 71.0004 81.9782 71.1168 81.9034C71.2343 81.8277 71.373 81.7898 71.533 81.7898C71.7366 81.7898 71.9019 81.8546 72.0288 81.9844C72.1566 82.1132 72.2205 82.2959 72.2205 82.5327V84H71.6168V82.652C71.6168 82.5308 71.5846 82.4399 71.5202 82.3793C71.4558 82.3187 71.3754 82.2884 71.2788 82.2884C71.1689 82.2884 71.0832 82.3234 71.0217 82.3935C70.9601 82.4626 70.9293 82.554 70.9293 82.6676V84H70.3427V82.6392C70.3427 82.5322 70.3119 82.447 70.2504 82.3835C70.1897 82.3201 70.1097 82.2884 70.0103 82.2884C69.9431 82.2884 69.8825 82.3054 69.8285 82.3395C69.7754 82.3726 69.7333 82.4195 69.7021 82.4801C69.6708 82.5398 69.6552 82.6098 69.6552 82.6903V84H69.0501ZM73.6928 84.0426C73.4684 84.0426 73.2752 83.9972 73.1133 83.9062C72.9523 83.8144 72.8282 83.6847 72.7411 83.517C72.654 83.3485 72.6104 83.1491 72.6104 82.919C72.6104 82.6946 72.654 82.4976 72.7411 82.3281C72.8282 82.1586 72.9509 82.0265 73.109 81.9318C73.2681 81.8371 73.4547 81.7898 73.6687 81.7898C73.8126 81.7898 73.9466 81.813 74.0707 81.8594C74.1957 81.9048 74.3046 81.9735 74.3974 82.0653C74.4911 82.1572 74.564 82.2727 74.6161 82.4119C74.6682 82.5502 74.6942 82.7121 74.6942 82.8977V83.0639H72.8519V82.6889H74.1246C74.1246 82.6018 74.1057 82.5246 74.0678 82.4574C74.0299 82.3902 73.9774 82.3376 73.9102 82.2997C73.8439 82.2609 73.7667 82.2415 73.6786 82.2415C73.5868 82.2415 73.5053 82.2628 73.4343 82.3054C73.3642 82.3471 73.3093 82.4034 73.2695 82.4744C73.2298 82.5445 73.2094 82.6226 73.2085 82.7088V83.0653C73.2085 83.1733 73.2283 83.2666 73.2681 83.3452C73.3088 83.4238 73.3661 83.4844 73.44 83.527C73.5138 83.5696 73.6014 83.5909 73.7028 83.5909C73.77 83.5909 73.8316 83.5814 73.8874 83.5625C73.9433 83.5436 73.9911 83.5152 74.0309 83.4773C74.0707 83.4394 74.101 83.393 74.1218 83.3381L74.6815 83.375C74.6531 83.5095 74.5948 83.6269 74.5067 83.7273C74.4196 83.8267 74.3069 83.9044 74.1687 83.9602C74.0314 84.0152 73.8728 84.0426 73.6928 84.0426Z" fill="black"/>
<path d="M64.8466 99.7386V101H64.2415V98.8182H64.8182V99.2031H64.8438C64.892 99.0762 64.973 98.9759 65.0866 98.902C65.2003 98.8272 65.3381 98.7898 65.5 98.7898C65.6515 98.7898 65.7836 98.8229 65.8963 98.8892C66.009 98.9555 66.0966 99.0502 66.1591 99.1733C66.2216 99.2955 66.2528 99.4413 66.2528 99.6108V101H65.6477V99.7188C65.6487 99.5852 65.6146 99.4811 65.5455 99.4062C65.4763 99.3305 65.3812 99.2926 65.2599 99.2926C65.1785 99.2926 65.1065 99.3101 65.044 99.3452C64.9825 99.3802 64.9342 99.4313 64.8991 99.4986C64.8651 99.5649 64.8475 99.6449 64.8466 99.7386ZM67.3519 101.041C67.2127 101.041 67.0887 101.017 66.9798 100.969C66.8709 100.92 66.7847 100.847 66.7212 100.751C66.6587 100.655 66.6275 100.535 66.6275 100.391C66.6275 100.269 66.6497 100.168 66.6942 100.085C66.7388 100.003 66.7994 99.9366 66.8761 99.8864C66.9528 99.8362 67.0399 99.7983 67.1374 99.7727C67.2359 99.7472 67.3391 99.7292 67.4471 99.7188C67.574 99.7055 67.6763 99.6932 67.7539 99.6818C67.8316 99.6695 67.8879 99.6515 67.9229 99.6278C67.958 99.6042 67.9755 99.5691 67.9755 99.5227V99.5142C67.9755 99.4242 67.9471 99.3546 67.8903 99.3054C67.8344 99.2562 67.7549 99.2315 67.6516 99.2315C67.5427 99.2315 67.4561 99.2557 67.3917 99.304C67.3273 99.3513 67.2847 99.411 67.2638 99.483L66.7042 99.4375C66.7326 99.3049 66.7885 99.1903 66.8718 99.0938C66.9551 98.9962 67.0626 98.9214 67.1942 98.8693C67.3268 98.8163 67.4802 98.7898 67.6545 98.7898C67.7757 98.7898 67.8917 98.804 68.0025 98.8324C68.1142 98.8608 68.2132 98.9048 68.2994 98.9645C68.3865 99.0241 68.4551 99.1009 68.5053 99.1946C68.5555 99.2874 68.5806 99.3987 68.5806 99.5284V101H68.0067V100.697H67.9897C67.9547 100.766 67.9078 100.826 67.8491 100.878C67.7904 100.929 67.7198 100.969 67.6374 100.999C67.555 101.027 67.4599 101.041 67.3519 101.041ZM67.5252 100.624C67.6142 100.624 67.6928 100.606 67.761 100.571C67.8292 100.535 67.8827 100.487 67.9215 100.426C67.9603 100.366 67.9798 100.297 67.9798 100.22V99.9886C67.9608 100.001 67.9348 100.012 67.9016 100.023C67.8694 100.032 67.833 100.041 67.7923 100.05C67.7515 100.057 67.7108 100.064 67.6701 100.071C67.6294 100.077 67.5924 100.082 67.5593 100.087C67.4883 100.097 67.4263 100.114 67.3732 100.136C67.3202 100.159 67.279 100.19 67.2496 100.229C67.2203 100.267 67.2056 100.314 67.2056 100.371C67.2056 100.453 67.2354 100.516 67.2951 100.56C67.3557 100.602 67.4324 100.624 67.5252 100.624ZM69.0501 101V98.8182H69.6268V99.2031H69.6523C69.6978 99.0753 69.7736 98.9744 69.8796 98.9006C69.9857 98.8267 70.1126 98.7898 70.2603 98.7898C70.4099 98.7898 70.5373 98.8272 70.6424 98.902C70.7475 98.9759 70.8176 99.0762 70.8526 99.2031H70.8754C70.9199 99.0781 71.0004 98.9782 71.1168 98.9034C71.2343 98.8277 71.373 98.7898 71.533 98.7898C71.7366 98.7898 71.9019 98.8546 72.0288 98.9844C72.1566 99.1132 72.2205 99.2959 72.2205 99.5327V101H71.6168V99.652C71.6168 99.5308 71.5846 99.4399 71.5202 99.3793C71.4558 99.3187 71.3754 99.2884 71.2788 99.2884C71.1689 99.2884 71.0832 99.3234 71.0217 99.3935C70.9601 99.4626 70.9293 99.554 70.9293 99.6676V101H70.3427V99.6392C70.3427 99.5322 70.3119 99.447 70.2504 99.3835C70.1897 99.3201 70.1097 99.2884 70.0103 99.2884C69.9431 99.2884 69.8825 99.3054 69.8285 99.3395C69.7754 99.3726 69.7333 99.4195 69.7021 99.4801C69.6708 99.5398 69.6552 99.6098 69.6552 99.6903V101H69.0501ZM73.6928 101.043C73.4684 101.043 73.2752 100.997 73.1133 100.906C72.9523 100.814 72.8282 100.685 72.7411 100.517C72.654 100.348 72.6104 100.149 72.6104 99.919C72.6104 99.6946 72.654 99.4976 72.7411 99.3281C72.8282 99.1586 72.9509 99.0265 73.109 98.9318C73.2681 98.8371 73.4547 98.7898 73.6687 98.7898C73.8126 98.7898 73.9466 98.813 74.0707 98.8594C74.1957 98.9048 74.3046 98.9735 74.3974 99.0653C74.4911 99.1572 74.564 99.2727 74.6161 99.4119C74.6682 99.5502 74.6942 99.7121 74.6942 99.8977V100.064H72.8519V99.6889H74.1246C74.1246 99.6018 74.1057 99.5246 74.0678 99.4574C74.0299 99.3902 73.9774 99.3376 73.9102 99.2997C73.8439 99.2609 73.7667 99.2415 73.6786 99.2415C73.5868 99.2415 73.5053 99.2628 73.4343 99.3054C73.3642 99.3471 73.3093 99.4034 73.2695 99.4744C73.2298 99.5445 73.2094 99.6226 73.2085 99.7088V100.065C73.2085 100.173 73.2283 100.267 73.2681 100.345C73.3088 100.424 73.3661 100.484 73.44 100.527C73.5138 100.57 73.6014 100.591 73.7028 100.591C73.77 100.591 73.8316 100.581 73.8874 100.562C73.9433 100.544 73.9911 100.515 74.0309 100.477C74.0707 100.439 74.101 100.393 74.1218 100.338L74.6815 100.375C74.6531 100.509 74.5948 100.627 74.5067 100.727C74.4196 100.827 74.3069 100.904 74.1687 100.96C74.0314 101.015 73.8728 101.043 73.6928 101.043Z" fill="black"/>
<rect x="64.25" y="87.25" width="49.5" height="7.5" fill="white" stroke="#DDE2E7" stroke-width="0.5"/>
<rect x="64.25" y="104.25" width="109.5" height="19.5" fill="white" stroke="#DDE2E7" stroke-width="0.5"/>
<path d="M125.236 84.0426C125.011 84.0426 124.818 83.9972 124.656 83.9062C124.495 83.8144 124.371 83.6847 124.284 83.517C124.197 83.3485 124.153 83.1491 124.153 82.919C124.153 82.6946 124.197 82.4976 124.284 82.3281C124.371 82.1586 124.494 82.0265 124.652 81.9318C124.811 81.8371 124.998 81.7898 125.212 81.7898C125.356 81.7898 125.49 81.813 125.614 81.8594C125.739 81.9048 125.848 81.9735 125.94 82.0653C126.034 82.1572 126.107 82.2727 126.159 82.4119C126.211 82.5502 126.237 82.7121 126.237 82.8977V83.0639H124.395V82.6889H125.668C125.668 82.6018 125.649 82.5246 125.611 82.4574C125.573 82.3902 125.52 82.3376 125.453 82.2997C125.387 82.2609 125.31 82.2415 125.222 82.2415C125.13 82.2415 125.048 82.2628 124.977 82.3054C124.907 82.3471 124.852 82.4034 124.812 82.4744C124.773 82.5445 124.752 82.6226 124.751 82.7088V83.0653C124.751 83.1733 124.771 83.2666 124.811 83.3452C124.852 83.4238 124.909 83.4844 124.983 83.527C125.057 83.5696 125.144 83.5909 125.246 83.5909C125.313 83.5909 125.375 83.5814 125.43 83.5625C125.486 83.5436 125.534 83.5152 125.574 83.4773C125.614 83.4394 125.644 83.393 125.665 83.3381L126.224 83.375C126.196 83.5095 126.138 83.6269 126.05 83.7273C125.963 83.8267 125.85 83.9044 125.712 83.9602C125.574 84.0152 125.416 84.0426 125.236 84.0426ZM126.632 84V81.8182H127.209V82.2031H127.234C127.28 82.0753 127.356 81.9744 127.462 81.9006C127.568 81.8267 127.695 81.7898 127.842 81.7898C127.992 81.7898 128.119 81.8272 128.224 81.902C128.33 81.9759 128.4 82.0762 128.435 82.2031H128.457C128.502 82.0781 128.582 81.9782 128.699 81.9034C128.816 81.8277 128.955 81.7898 129.115 81.7898C129.319 81.7898 129.484 81.8546 129.611 81.9844C129.739 82.1132 129.803 82.2959 129.803 82.5327V84H129.199V82.652C129.199 82.5308 129.167 82.4399 129.102 82.3793C129.038 82.3187 128.957 82.2884 128.861 82.2884C128.751 82.2884 128.665 82.3234 128.604 82.3935C128.542 82.4626 128.511 82.554 128.511 82.6676V84H127.925V82.6392C127.925 82.5322 127.894 82.447 127.832 82.3835C127.772 82.3201 127.692 82.2884 127.592 82.2884C127.525 82.2884 127.464 82.3054 127.411 82.3395C127.357 82.3726 127.315 82.4195 127.284 82.4801C127.253 82.5398 127.237 82.6098 127.237 82.6903V84H126.632ZM130.903 84.0412C130.763 84.0412 130.639 84.017 130.531 83.9688C130.422 83.9195 130.335 83.8471 130.272 83.7514C130.21 83.6548 130.178 83.5346 130.178 83.3906C130.178 83.2694 130.201 83.1676 130.245 83.0852C130.29 83.0028 130.35 82.9366 130.427 82.8864C130.504 82.8362 130.591 82.7983 130.688 82.7727C130.787 82.7472 130.89 82.7292 130.998 82.7188C131.125 82.7055 131.227 82.6932 131.305 82.6818C131.382 82.6695 131.439 82.6515 131.474 82.6278C131.509 82.6042 131.526 82.5691 131.526 82.5227V82.5142C131.526 82.4242 131.498 82.3546 131.441 82.3054C131.385 82.2562 131.306 82.2315 131.202 82.2315C131.094 82.2315 131.007 82.2557 130.942 82.304C130.878 82.3513 130.835 82.411 130.815 82.483L130.255 82.4375C130.283 82.3049 130.339 82.1903 130.423 82.0938C130.506 81.9962 130.613 81.9214 130.745 81.8693C130.878 81.8163 131.031 81.7898 131.205 81.7898C131.326 81.7898 131.442 81.804 131.553 81.8324C131.665 81.8608 131.764 81.9048 131.85 81.9645C131.937 82.0241 132.006 82.1009 132.056 82.1946C132.106 82.2874 132.131 82.3987 132.131 82.5284V84H131.558V83.6974H131.54C131.505 83.7656 131.459 83.8258 131.4 83.8778C131.341 83.929 131.271 83.9692 131.188 83.9986C131.106 84.027 131.011 84.0412 130.903 84.0412ZM131.076 83.6236C131.165 83.6236 131.244 83.6061 131.312 83.571C131.38 83.535 131.433 83.4867 131.472 83.4261C131.511 83.3655 131.531 83.2969 131.531 83.2202V82.9886C131.512 83.0009 131.486 83.0123 131.452 83.0227C131.42 83.0322 131.384 83.0412 131.343 83.0497C131.302 83.0573 131.262 83.0644 131.221 83.071C131.18 83.0767 131.143 83.0819 131.11 83.0866C131.039 83.0971 130.977 83.1136 130.924 83.1364C130.871 83.1591 130.83 83.1899 130.8 83.2287C130.771 83.2666 130.756 83.3139 130.756 83.3707C130.756 83.4531 130.786 83.5161 130.846 83.5597C130.906 83.6023 130.983 83.6236 131.076 83.6236ZM132.601 84V81.8182H133.206V84H132.601ZM132.905 81.5369C132.815 81.5369 132.738 81.5071 132.673 81.4474C132.61 81.3868 132.578 81.3144 132.578 81.2301C132.578 81.1468 132.61 81.0753 132.673 81.0156C132.738 80.955 132.815 80.9247 132.905 80.9247C132.995 80.9247 133.071 80.955 133.135 81.0156C133.199 81.0753 133.232 81.1468 133.232 81.2301C133.232 81.3144 133.199 81.3868 133.135 81.4474C133.071 81.5071 132.995 81.5369 132.905 81.5369ZM134.296 81.0909V84H133.691V81.0909H134.296Z" fill="black"/>
<rect x="124.25" y="87.25" width="49.5" height="7.5" fill="white" stroke="#DDE2E7" stroke-width="0.5"/>
<rect x="64" y="128" width="110" height="8" fill="#409EFF"/>
<path d="M109.182 67.0312C109.162 66.9621 109.134 66.901 109.098 66.848C109.062 66.794 109.018 66.7486 108.966 66.7116C108.915 66.6738 108.856 66.6449 108.79 66.625C108.724 66.6051 108.652 66.5952 108.572 66.5952C108.424 66.5952 108.293 66.6321 108.18 66.706C108.069 66.7798 107.982 66.8873 107.919 67.0284C107.857 67.1686 107.825 67.34 107.825 67.5426C107.825 67.7453 107.856 67.9176 107.918 68.0597C107.979 68.2017 108.066 68.3101 108.179 68.3849C108.292 68.4588 108.425 68.4957 108.578 68.4957C108.717 68.4957 108.836 68.4711 108.935 68.4219C109.034 68.3717 109.11 68.3011 109.162 68.2102C109.215 68.1193 109.241 68.0118 109.241 67.8878L109.366 67.9062H108.616V67.4432H109.834V67.8097C109.834 68.0653 109.78 68.285 109.672 68.4688C109.564 68.6515 109.415 68.7926 109.226 68.892C109.036 68.9905 108.82 69.0398 108.575 69.0398C108.303 69.0398 108.063 68.9796 107.857 68.8594C107.65 68.7382 107.489 68.5663 107.374 68.3438C107.259 68.1203 107.202 67.8551 107.202 67.5483C107.202 67.3125 107.236 67.1023 107.304 66.9176C107.373 66.732 107.47 66.5748 107.594 66.446C107.718 66.3172 107.862 66.2192 108.027 66.152C108.192 66.0848 108.37 66.0511 108.562 66.0511C108.727 66.0511 108.881 66.0753 109.023 66.1236C109.165 66.1709 109.291 66.2382 109.401 66.3253C109.511 66.4124 109.602 66.5161 109.672 66.6364C109.742 66.7557 109.787 66.8873 109.807 67.0312H109.182ZM111.279 69.0426C111.054 69.0426 110.861 68.9972 110.699 68.9062C110.538 68.8144 110.414 68.6847 110.327 68.517C110.24 68.3485 110.196 68.1491 110.196 67.919C110.196 67.6946 110.24 67.4976 110.327 67.3281C110.414 67.1586 110.537 67.0265 110.695 66.9318C110.854 66.8371 111.041 66.7898 111.255 66.7898C111.399 66.7898 111.533 66.813 111.657 66.8594C111.782 66.9048 111.891 66.9735 111.983 67.0653C112.077 67.1572 112.15 67.2727 112.202 67.4119C112.254 67.5502 112.28 67.7121 112.28 67.8977V68.0639H110.438V67.6889H111.711C111.711 67.6018 111.692 67.5246 111.654 67.4574C111.616 67.3902 111.563 67.3376 111.496 67.2997C111.43 67.2609 111.353 67.2415 111.265 67.2415C111.173 67.2415 111.091 67.2628 111.02 67.3054C110.95 67.3471 110.895 67.4034 110.855 67.4744C110.816 67.5445 110.795 67.6226 110.794 67.7088V68.0653C110.794 68.1733 110.814 68.2666 110.854 68.3452C110.895 68.4238 110.952 68.4844 111.026 68.527C111.1 68.5696 111.187 68.5909 111.289 68.5909C111.356 68.5909 111.417 68.5814 111.473 68.5625C111.529 68.5436 111.577 68.5152 111.617 68.4773C111.657 68.4394 111.687 68.393 111.708 68.3381L112.267 68.375C112.239 68.5095 112.181 68.6269 112.093 68.7273C112.006 68.8267 111.893 68.9044 111.755 68.9602C111.617 69.0152 111.459 69.0426 111.279 69.0426ZM113.836 66.8182V67.2727H112.522V66.8182H113.836ZM112.82 66.2955H113.425V68.3295C113.425 68.3854 113.434 68.429 113.451 68.4602C113.468 68.4905 113.491 68.5118 113.522 68.5241C113.553 68.5365 113.589 68.5426 113.63 68.5426C113.658 68.5426 113.686 68.5402 113.715 68.5355C113.743 68.5298 113.765 68.5256 113.78 68.5227L113.875 68.973C113.845 68.9825 113.802 68.9934 113.748 69.0057C113.693 69.0189 113.626 69.027 113.547 69.0298C113.401 69.0355 113.274 69.0161 113.164 68.9716C113.055 68.9271 112.97 68.858 112.909 68.7642C112.849 68.6705 112.819 68.5521 112.82 68.4091V66.2955ZM115.156 69V66.8182H115.761V69H115.156ZM115.46 66.5369C115.37 66.5369 115.292 66.5071 115.228 66.4474C115.165 66.3868 115.133 66.3144 115.133 66.2301C115.133 66.1468 115.165 66.0753 115.228 66.0156C115.292 65.955 115.37 65.9247 115.46 65.9247C115.549 65.9247 115.626 65.955 115.69 66.0156C115.754 66.0753 115.786 66.1468 115.786 66.2301C115.786 66.3144 115.754 66.3868 115.69 66.4474C115.626 66.5071 115.549 66.5369 115.46 66.5369ZM116.85 67.7386V69H116.245V66.8182H116.822V67.2031H116.848C116.896 67.0762 116.977 66.9759 117.091 66.902C117.204 66.8272 117.342 66.7898 117.504 66.7898C117.655 66.7898 117.788 66.8229 117.9 66.8892C118.013 66.9555 118.1 67.0502 118.163 67.1733C118.225 67.2955 118.257 67.4413 118.257 67.6108V69H117.652V67.7188C117.653 67.5852 117.618 67.4811 117.549 67.4062C117.48 67.3305 117.385 67.2926 117.264 67.2926C117.182 67.2926 117.11 67.3101 117.048 67.3452C116.986 67.3802 116.938 67.4313 116.903 67.4986C116.869 67.5649 116.851 67.6449 116.85 67.7386ZM120.82 66.8182V67.2727H119.506V66.8182H120.82ZM119.804 66.2955H120.409V68.3295C120.409 68.3854 120.418 68.429 120.435 68.4602C120.452 68.4905 120.476 68.5118 120.506 68.5241C120.537 68.5365 120.573 68.5426 120.614 68.5426C120.642 68.5426 120.671 68.5402 120.699 68.5355C120.728 68.5298 120.749 68.5256 120.765 68.5227L120.86 68.973C120.829 68.9825 120.787 68.9934 120.732 69.0057C120.677 69.0189 120.61 69.027 120.532 69.0298C120.386 69.0355 120.258 69.0161 120.148 68.9716C120.039 68.9271 119.954 68.858 119.894 68.7642C119.833 68.6705 119.803 68.5521 119.804 68.4091V66.2955ZM122.176 69.0426C121.956 69.0426 121.765 68.9957 121.604 68.902C121.444 68.8073 121.32 68.6757 121.233 68.5071C121.146 68.3376 121.103 68.1411 121.103 67.9176C121.103 67.6922 121.146 67.4953 121.233 67.3267C121.32 67.1572 121.444 67.0256 121.604 66.9318C121.765 66.8371 121.956 66.7898 122.176 66.7898C122.397 66.7898 122.587 66.8371 122.748 66.9318C122.908 67.0256 123.033 67.1572 123.12 67.3267C123.207 67.4953 123.25 67.6922 123.25 67.9176C123.25 68.1411 123.207 68.3376 123.12 68.5071C123.033 68.6757 122.908 68.8073 122.748 68.902C122.587 68.9957 122.397 69.0426 122.176 69.0426ZM122.179 68.5739C122.28 68.5739 122.364 68.5455 122.431 68.4886C122.498 68.4309 122.549 68.3523 122.583 68.2528C122.618 68.1534 122.635 68.0402 122.635 67.9134C122.635 67.7865 122.618 67.6733 122.583 67.5739C122.549 67.4744 122.498 67.3958 122.431 67.3381C122.364 67.2803 122.28 67.2514 122.179 67.2514C122.078 67.2514 121.993 67.2803 121.924 67.3381C121.855 67.3958 121.804 67.4744 121.769 67.5739C121.735 67.6733 121.718 67.7865 121.718 67.9134C121.718 68.0402 121.735 68.1534 121.769 68.2528C121.804 68.3523 121.855 68.4309 121.924 68.4886C121.993 68.5455 122.078 68.5739 122.179 68.5739ZM125.043 68.071V66.8182H125.648V69H125.067V68.6037H125.044C124.995 68.7315 124.913 68.8343 124.799 68.9119C124.685 68.9896 124.546 69.0284 124.382 69.0284C124.237 69.0284 124.108 68.9953 123.998 68.929C123.887 68.8627 123.8 68.7685 123.738 68.6463C123.676 68.5241 123.645 68.3778 123.644 68.2074V66.8182H124.249V68.0994C124.25 68.2282 124.284 68.33 124.353 68.4048C124.421 68.4796 124.512 68.517 124.627 68.517C124.7 68.517 124.768 68.5005 124.831 68.4673C124.895 68.4332 124.946 68.383 124.985 68.3168C125.025 68.2505 125.044 68.1686 125.043 68.071ZM127.118 69.0426C126.894 69.0426 126.702 68.9953 126.541 68.9006C126.381 68.8049 126.258 68.6723 126.172 68.5028C126.087 68.3333 126.044 68.1383 126.044 67.9176C126.044 67.6941 126.087 67.4981 126.173 67.3295C126.26 67.16 126.384 67.0279 126.544 66.9332C126.704 66.8376 126.894 66.7898 127.115 66.7898C127.305 66.7898 127.472 66.8243 127.615 66.8935C127.758 66.9626 127.871 67.0597 127.955 67.1847C128.038 67.3097 128.084 67.4564 128.092 67.625H127.521C127.505 67.5161 127.463 67.4285 127.393 67.3622C127.325 67.295 127.236 67.2614 127.125 67.2614C127.031 67.2614 126.949 67.2869 126.879 67.3381C126.81 67.3883 126.756 67.4616 126.717 67.5582C126.679 67.6548 126.659 67.7718 126.659 67.9091C126.659 68.0483 126.678 68.1667 126.716 68.2642C126.755 68.3617 126.809 68.4361 126.879 68.4872C126.949 68.5384 127.031 68.5639 127.125 68.5639C127.194 68.5639 127.256 68.5497 127.311 68.5213C127.367 68.4929 127.413 68.4517 127.449 68.3977C127.486 68.3428 127.51 68.277 127.521 68.2003H128.092C128.083 68.367 128.037 68.5137 127.956 68.6406C127.875 68.7666 127.764 68.8651 127.622 68.9361C127.48 69.0071 127.312 69.0426 127.118 69.0426ZM129.085 67.7386V69H128.48V66.0909H129.068V67.2031H129.093C129.143 67.0743 129.222 66.9735 129.332 66.9006C129.442 66.8267 129.58 66.7898 129.745 66.7898C129.897 66.7898 130.029 66.8229 130.142 66.8892C130.255 66.9545 130.343 67.0488 130.406 67.1719C130.469 67.294 130.501 67.4403 130.5 67.6108V69H129.895V67.7188C129.895 67.5843 129.861 67.4796 129.792 67.4048C129.724 67.33 129.628 67.2926 129.505 67.2926C129.423 67.2926 129.35 67.3101 129.287 67.3452C129.224 67.3802 129.175 67.4313 129.139 67.4986C129.104 67.5649 129.086 67.6449 129.085 67.7386Z" fill="black"/>
</svg>
