<svg width="239" height="200" viewBox="0 0 239 200" fill="none" xmlns="http://www.w3.org/2000/svg">
<rect x="30" y="63" width="180" height="75" fill="white"/>
<path d="M70.1896 112.608L71.1839 106.553L90.3423 82.6364H95.5625L94.1776 91.017H91.0703L78.9964 106.163L78.9609 106.447H100.516L99.5043 112.608H70.1896ZM86.5781 119L87.9631 110.744L88.549 108.098L92.7571 82.6364H99.9659L93.929 119H86.5781ZM117.695 119.799C114.641 119.799 112.137 119.053 110.184 117.562C108.231 116.058 106.9 113.892 106.189 111.063C105.491 108.234 105.473 104.831 106.136 100.854C106.811 96.8883 107.965 93.5088 109.598 90.7152C111.244 87.9216 113.28 85.7969 115.706 84.3409C118.145 82.8731 120.885 82.1392 123.927 82.1392C126.958 82.1392 129.449 82.8731 131.402 84.3409C133.355 85.8087 134.693 87.9335 135.415 90.7152C136.149 93.4969 136.185 96.8764 135.522 100.854C134.859 104.843 133.705 108.252 132.059 111.081C130.414 113.898 128.372 116.058 125.934 117.562C123.495 119.053 120.749 119.799 117.695 119.799ZM118.76 113.425C120.855 113.425 122.69 112.377 124.265 110.282C125.839 108.187 126.975 105.044 127.674 100.854C128.135 98.1075 128.236 95.817 127.975 93.9822C127.727 92.1357 127.165 90.7507 126.289 89.8274C125.413 88.9041 124.282 88.4425 122.897 88.4425C120.826 88.4425 118.991 89.4841 117.393 91.5675C115.807 93.639 114.671 96.7344 113.984 100.854C113.522 103.647 113.422 105.979 113.682 107.849C113.943 109.708 114.511 111.105 115.387 112.04C116.263 112.963 117.387 113.425 118.76 113.425ZM138.5 112.608L139.494 106.553L158.653 82.6364H163.873L162.488 91.017H159.381L147.307 106.163L147.271 106.447H168.827L167.815 112.608H138.5ZM154.889 119L156.274 110.744L156.86 108.098L161.068 82.6364H168.276L162.24 119H154.889Z" fill="black"/>
</svg>
