<svg width="239" height="200" viewBox="0 0 239 200" fill="none" xmlns="http://www.w3.org/2000/svg">
<rect x="29" y="70" width="180" height="60" fill="white"/>
<rect x="33" y="73" width="10" height="4" fill="#DDE2E7"/>
<rect x="33" y="123" width="10" height="4" fill="#DDE2E7"/>
<rect x="33" y="94" width="10" height="4" fill="#DDE2E7"/>
<rect x="33" y="103" width="10" height="4" fill="#DDE2E7"/>
<rect x="33" y="113" width="10" height="4" fill="#DDE2E7"/>
<rect x="33" y="84" width="162" height="4" fill="#DDE2E7"/>
<path d="M203 75L204.5 76L206 75" stroke="#DDE2E7"/>
<path d="M204 97L205 95.5L204 94" stroke="#DDE2E7"/>
<path d="M204 107L205 105.5L204 104" stroke="#DDE2E7"/>
<path d="M204 117L205 115.5L204 114" stroke="#DDE2E7"/>
<path d="M204 127L205 125.5L204 124" stroke="#DDE2E7"/>
<line x1="29" y1="90.5" x2="209" y2="90.5" stroke="#DDE2E7"/>
<line x1="29" y1="110.5" x2="209" y2="110.5" stroke="#DDE2E7"/>
<line x1="29" y1="100.5" x2="209" y2="100.5" stroke="#DDE2E7"/>
<line x1="29" y1="120.5" x2="209" y2="120.5" stroke="#DDE2E7"/>
<path d="M29.5057 62V56.1818H33.358V57.196H30.7358V58.5824H33.1023V59.5966H30.7358V62H29.5057ZM34.4616 62H33.1435L35.152 56.1818H36.7372L38.7429 62H37.4247L35.9673 57.5114H35.9219L34.4616 62ZM34.3793 59.7131H37.4929V60.6733H34.3793V59.7131ZM41.3658 59.9773H42.4112L42.9368 60.6534L43.4538 61.2557L44.4283 62.4773H43.2805L42.6101 61.6534L42.2663 61.1648L41.3658 59.9773ZM44.5163 59.0909C44.5163 59.7254 44.3961 60.2652 44.1555 60.7102C43.9169 61.1553 43.5911 61.4953 43.1783 61.7301C42.7673 61.9631 42.3052 62.0795 41.7919 62.0795C41.2749 62.0795 40.8108 61.9621 40.3999 61.7273C39.9889 61.4924 39.6641 61.1525 39.4254 60.7074C39.1868 60.2623 39.0675 59.7235 39.0675 59.0909C39.0675 58.4564 39.1868 57.9167 39.4254 57.4716C39.6641 57.0265 39.9889 56.6875 40.3999 56.4545C40.8108 56.2197 41.2749 56.1023 41.7919 56.1023C42.3052 56.1023 42.7673 56.2197 43.1783 56.4545C43.5911 56.6875 43.9169 57.0265 44.1555 57.4716C44.3961 57.9167 44.5163 58.4564 44.5163 59.0909ZM43.2692 59.0909C43.2692 58.6799 43.2076 58.3333 43.0845 58.0511C42.9633 57.7689 42.7919 57.5549 42.5703 57.4091C42.3487 57.2633 42.0893 57.1903 41.7919 57.1903C41.4946 57.1903 41.2351 57.2633 41.0135 57.4091C40.7919 57.5549 40.6196 57.7689 40.4964 58.0511C40.3752 58.3333 40.3146 58.6799 40.3146 59.0909C40.3146 59.5019 40.3752 59.8485 40.4964 60.1307C40.6196 60.4129 40.7919 60.6269 41.0135 60.7727C41.2351 60.9186 41.4946 60.9915 41.7919 60.9915C42.0893 60.9915 42.3487 60.9186 42.5703 60.7727C42.7919 60.6269 42.9633 60.4129 43.0845 60.1307C43.2076 59.8485 43.2692 59.5019 43.2692 59.0909ZM46.419 56.1818V56.7955C46.419 56.9697 46.3849 57.1477 46.3168 57.3295C46.2505 57.5095 46.1615 57.6799 46.0497 57.8409C45.938 58 45.8158 58.1354 45.6832 58.2472L45.1491 57.9318C45.2438 57.7822 45.3272 57.6165 45.3991 57.4347C45.473 57.2528 45.5099 57.0417 45.5099 56.8011V56.1818H46.419ZM50.4041 57.8551C50.3814 57.6259 50.2839 57.4479 50.1115 57.321C49.9392 57.1941 49.7053 57.1307 49.4098 57.1307C49.209 57.1307 49.0395 57.1591 48.9013 57.2159C48.763 57.2708 48.657 57.3475 48.5831 57.446C48.5111 57.5445 48.4751 57.6562 48.4751 57.7812C48.4714 57.8854 48.4931 57.9763 48.5405 58.054C48.5897 58.1316 48.657 58.1989 48.7422 58.2557C48.8274 58.3106 48.9259 58.3589 49.0376 58.4006C49.1494 58.4403 49.2687 58.4744 49.3956 58.5028L49.9183 58.6278C50.1721 58.6847 50.4051 58.7604 50.6172 58.8551C50.8293 58.9498 51.013 59.0663 51.1683 59.2045C51.3236 59.3428 51.4439 59.5057 51.5291 59.6932C51.6162 59.8807 51.6607 60.0956 51.6626 60.3381C51.6607 60.6941 51.5698 61.0028 51.3899 61.2642C51.2119 61.5237 50.9543 61.7254 50.6172 61.8693C50.282 62.0114 49.8776 62.0824 49.4041 62.0824C48.9344 62.0824 48.5253 62.0104 48.1768 61.8665C47.8303 61.7225 47.5594 61.5095 47.3643 61.2273C47.1712 60.9432 47.0698 60.5919 47.0604 60.1733H48.2507C48.264 60.3684 48.3198 60.5312 48.4183 60.6619C48.5187 60.7907 48.6522 60.8883 48.8189 60.9545C48.9875 61.0189 49.1778 61.0511 49.3899 61.0511C49.5982 61.0511 49.7791 61.0208 49.9325 60.9602C50.0878 60.8996 50.2081 60.8153 50.2933 60.7074C50.3786 60.5994 50.4212 60.4754 50.4212 60.3352C50.4212 60.2045 50.3823 60.0947 50.3047 60.0057C50.2289 59.9167 50.1172 59.8409 49.9695 59.7784C49.8236 59.7159 49.6446 59.6591 49.4325 59.608L48.799 59.4489C48.3085 59.3295 47.9212 59.143 47.6371 58.8892C47.353 58.6354 47.2119 58.2936 47.2138 57.8636C47.2119 57.5114 47.3056 57.2036 47.495 56.9403C47.6863 56.6771 47.9486 56.4716 48.282 56.3239C48.6153 56.1761 48.9941 56.1023 49.4183 56.1023C49.8501 56.1023 50.227 56.1761 50.549 56.3239C50.8729 56.4716 51.1248 56.6771 51.3047 56.9403C51.4846 57.2036 51.5774 57.5085 51.5831 57.8551H50.4041Z" fill="black"/>
</svg>
