<svg width="239" height="200" viewBox="0 0 239 200" fill="none" xmlns="http://www.w3.org/2000/svg">
<rect x="30" y="60" width="180" height="80" fill="white"/>
<rect x="95" y="83" width="50" height="4" fill="#DDE2E7"/>
<path d="M110.379 76V71.6364H112.101C112.432 71.6364 112.714 71.6996 112.947 71.826C113.18 71.951 113.357 72.125 113.479 72.348C113.603 72.5696 113.665 72.8253 113.665 73.1151C113.665 73.4048 113.602 73.6605 113.477 73.8821C113.352 74.1037 113.171 74.2763 112.934 74.3999C112.698 74.5234 112.413 74.5852 112.077 74.5852H110.98V73.8459H111.928C112.106 73.8459 112.252 73.8153 112.367 73.7543C112.484 73.6918 112.57 73.6058 112.627 73.4964C112.685 73.3857 112.714 73.2585 112.714 73.1151C112.714 72.9702 112.685 72.8437 112.627 72.7358C112.57 72.6264 112.484 72.5419 112.367 72.4822C112.251 72.4212 112.103 72.3906 111.924 72.3906H111.302V76H110.379ZM114.247 76V72.7273H115.127V73.2983H115.161C115.221 73.0952 115.321 72.9418 115.461 72.8381C115.602 72.733 115.764 72.6804 115.947 72.6804C115.993 72.6804 116.042 72.6832 116.094 72.6889C116.147 72.6946 116.193 72.7024 116.233 72.7124V73.5178C116.19 73.505 116.131 73.4936 116.056 73.4837C115.981 73.4737 115.912 73.4688 115.849 73.4688C115.716 73.4688 115.596 73.4979 115.491 73.5561C115.388 73.6129 115.305 73.6925 115.244 73.7947C115.184 73.897 115.155 74.0149 115.155 74.1484V76H114.247ZM116.702 76V72.7273H117.61V76H116.702ZM117.158 72.3054C117.023 72.3054 116.907 72.2607 116.811 72.1712C116.716 72.0803 116.668 71.9716 116.668 71.8452C116.668 71.7202 116.716 71.6129 116.811 71.5234C116.907 71.4325 117.023 71.3871 117.158 71.3871C117.293 71.3871 117.408 71.4325 117.503 71.5234C117.6 71.6129 117.648 71.7202 117.648 71.8452C117.648 71.9716 117.6 72.0803 117.503 72.1712C117.408 72.2607 117.293 72.3054 117.158 72.3054ZM119.816 76.0639C119.48 76.0639 119.192 75.9929 118.95 75.8509C118.71 75.7074 118.526 75.5085 118.396 75.2543C118.269 75 118.205 74.7074 118.205 74.3764C118.205 74.0412 118.269 73.7472 118.399 73.4943C118.529 73.2401 118.715 73.0419 118.955 72.8999C119.195 72.7564 119.48 72.6847 119.811 72.6847C120.097 72.6847 120.347 72.7365 120.561 72.8402C120.776 72.9439 120.945 73.0895 121.07 73.277C121.195 73.4645 121.264 73.6847 121.277 73.9375H120.421C120.396 73.7741 120.333 73.6428 120.229 73.5433C120.127 73.4425 119.992 73.392 119.826 73.392C119.686 73.392 119.563 73.4304 119.458 73.5071C119.354 73.5824 119.273 73.6925 119.215 73.8374C119.156 73.9822 119.127 74.1577 119.127 74.3636C119.127 74.5724 119.156 74.75 119.213 74.8963C119.271 75.0426 119.352 75.1541 119.458 75.2308C119.563 75.3075 119.686 75.3459 119.826 75.3459C119.93 75.3459 120.023 75.3246 120.105 75.282C120.189 75.2393 120.258 75.1776 120.312 75.0966C120.367 75.0142 120.404 74.9155 120.421 74.8004H121.277C121.263 75.0504 121.195 75.2706 121.073 75.4609C120.952 75.6499 120.785 75.7976 120.572 75.9041C120.359 76.0107 120.107 76.0639 119.816 76.0639ZM121.858 76V72.7273H122.766V76H121.858ZM122.314 72.3054C122.179 72.3054 122.064 72.2607 121.967 72.1712C121.872 72.0803 121.824 71.9716 121.824 71.8452C121.824 71.7202 121.872 71.6129 121.967 71.5234C122.064 71.4325 122.179 71.3871 122.314 71.3871C122.449 71.3871 122.564 71.4325 122.659 71.5234C122.756 71.6129 122.804 71.7202 122.804 71.8452C122.804 71.9716 122.756 72.0803 122.659 72.1712C122.564 72.2607 122.449 72.3054 122.314 72.3054ZM124.401 74.108V76H123.493V72.7273H124.358V73.3047H124.396C124.469 73.1143 124.59 72.9638 124.761 72.853C124.931 72.7408 125.138 72.6847 125.381 72.6847C125.608 72.6847 125.806 72.7344 125.975 72.8338C126.144 72.9332 126.276 73.0753 126.369 73.2599C126.463 73.4432 126.51 73.6619 126.51 73.9162V76H125.602V74.0781C125.604 73.8778 125.553 73.7216 125.449 73.6094C125.345 73.4957 125.203 73.4389 125.021 73.4389C124.899 73.4389 124.791 73.4652 124.697 73.5178C124.605 73.5703 124.532 73.647 124.48 73.7479C124.428 73.8473 124.402 73.9673 124.401 74.108ZM128.7 77.2955C128.406 77.2955 128.154 77.255 127.944 77.174C127.735 77.0945 127.569 76.9858 127.445 76.848C127.321 76.7102 127.241 76.5554 127.204 76.3835L128.044 76.2706C128.069 76.3359 128.11 76.397 128.165 76.4538C128.221 76.5107 128.294 76.5561 128.385 76.5902C128.477 76.6257 128.589 76.6435 128.721 76.6435C128.919 76.6435 129.081 76.5952 129.209 76.4986C129.338 76.4034 129.403 76.2436 129.403 76.0192V75.4205H129.365C129.325 75.5114 129.265 75.5973 129.186 75.6783C129.106 75.7592 129.004 75.8253 128.879 75.8764C128.754 75.9276 128.605 75.9531 128.431 75.9531C128.186 75.9531 127.962 75.8963 127.76 75.7827C127.56 75.6676 127.4 75.4922 127.281 75.2564C127.163 75.0192 127.104 74.7195 127.104 74.3572C127.104 73.9865 127.164 73.6768 127.285 73.4283C127.406 73.1797 127.566 72.9936 127.767 72.87C127.968 72.7464 128.189 72.6847 128.429 72.6847C128.613 72.6847 128.766 72.7159 128.89 72.7784C129.013 72.8395 129.113 72.9162 129.188 73.0085C129.265 73.0994 129.324 73.1889 129.365 73.277H129.399V72.7273H130.3V76.032C130.3 76.3104 130.232 76.5433 130.096 76.7308C129.959 76.9183 129.77 77.0589 129.529 77.1527C129.289 77.2479 129.012 77.2955 128.7 77.2955ZM128.719 75.2713C128.865 75.2713 128.989 75.2351 129.09 75.1626C129.192 75.0888 129.27 74.9837 129.324 74.8473C129.38 74.7095 129.407 74.5447 129.407 74.353C129.407 74.1612 129.38 73.995 129.326 73.8544C129.272 73.7124 129.194 73.6023 129.092 73.5241C128.99 73.446 128.865 73.407 128.719 73.407C128.57 73.407 128.444 73.4474 128.342 73.5284C128.24 73.608 128.162 73.7187 128.11 73.8608C128.057 74.0028 128.031 74.1669 128.031 74.353C128.031 74.5419 128.057 74.7053 128.11 74.843C128.164 74.9794 128.241 75.0852 128.342 75.1605C128.444 75.2344 128.57 75.2713 128.719 75.2713Z" fill="black"/>
<rect x="101.25" y="93.25" width="39.5" height="39.5" fill="white" stroke="#DDE2E7" stroke-width="0.5"/>
<rect x="50.25" y="93.25" width="39.5" height="39.5" fill="white" stroke="#DDE2E7" stroke-width="0.5"/>
<rect x="152.25" y="93.25" width="39.5" height="39.5" fill="white" stroke="#409EFF" stroke-width="0.5"/>
<path d="M65.2457 120.273V107.545H66.0611V120.273H65.2457ZM67.4084 111.746C67.3686 111.345 67.1979 111.034 66.8963 110.812C66.5947 110.59 66.1854 110.479 65.6683 110.479C65.317 110.479 65.0204 110.528 64.7784 110.628C64.5365 110.724 64.3509 110.858 64.2216 111.031C64.0956 111.203 64.0327 111.398 64.0327 111.617C64.026 111.799 64.0642 111.959 64.147 112.094C64.2332 112.23 64.3509 112.348 64.5 112.447C64.6491 112.544 64.8215 112.628 65.017 112.701C65.2126 112.771 65.4214 112.83 65.6435 112.88L66.5582 113.099C67.0024 113.198 67.41 113.331 67.7812 113.496C68.1525 113.662 68.474 113.866 68.7457 114.108C69.0175 114.35 69.228 114.635 69.3771 114.963C69.5296 115.291 69.6075 115.667 69.6108 116.092C69.6075 116.715 69.4484 117.255 69.1335 117.712C68.822 118.166 68.3712 118.519 67.7812 118.771C67.1946 119.02 66.487 119.144 65.6584 119.144C64.8364 119.144 64.1205 119.018 63.5107 118.766C62.9041 118.514 62.4302 118.142 62.0888 117.648C61.7507 117.151 61.5734 116.536 61.5568 115.803H63.6399C63.6631 116.145 63.7609 116.43 63.9332 116.658C64.1089 116.884 64.3426 117.054 64.6342 117.17C64.9292 117.283 65.2623 117.339 65.6335 117.339C65.9981 117.339 66.3146 117.286 66.5831 117.18C66.8549 117.074 67.0653 116.927 67.2145 116.738C67.3636 116.549 67.4382 116.332 67.4382 116.087C67.4382 115.858 67.3703 115.666 67.2344 115.51C67.1018 115.354 66.9063 115.222 66.6477 115.112C66.3925 115.003 66.0793 114.903 65.7081 114.814L64.5994 114.536C63.741 114.327 63.0632 114 62.5661 113.556C62.0689 113.112 61.822 112.514 61.8253 111.761C61.822 111.145 61.986 110.606 62.3175 110.146C62.6522 109.685 63.1113 109.325 63.6946 109.067C64.2779 108.808 64.9408 108.679 65.6832 108.679C66.4389 108.679 67.0985 108.808 67.6619 109.067C68.2287 109.325 68.6695 109.685 68.9844 110.146C69.2992 110.606 69.4616 111.14 69.4716 111.746H67.4084ZM74.9913 119.224C74.1362 119.22 73.4004 119.01 72.7839 118.592C72.1708 118.175 71.6984 117.57 71.367 116.778C71.0389 115.986 70.8765 115.033 70.8798 113.919C70.8798 112.809 71.0439 111.862 71.372 111.08C71.7034 110.298 72.1757 109.703 72.7889 109.295C73.4054 108.884 74.1395 108.679 74.9913 108.679C75.8431 108.679 76.5756 108.884 77.1887 109.295C77.8052 109.706 78.2792 110.303 78.6106 111.085C78.9421 111.864 79.1061 112.809 79.1028 113.919C79.1028 115.036 78.9371 115.991 78.6056 116.783C78.2775 117.575 77.8069 118.18 77.1937 118.597C76.5806 119.015 75.8464 119.224 74.9913 119.224ZM74.9913 117.439C75.5746 117.439 76.0403 117.146 76.3883 116.559C76.7363 115.972 76.9087 115.092 76.9054 113.919C76.9054 113.147 76.8258 112.504 76.6667 111.99C76.5109 111.476 76.2889 111.09 76.0005 110.832C75.7155 110.573 75.3791 110.444 74.9913 110.444C74.4113 110.444 73.9473 110.734 73.5993 111.314C73.2512 111.894 73.0756 112.762 73.0723 113.919C73.0723 114.701 73.1502 115.354 73.3059 115.878C73.465 116.398 73.6887 116.789 73.9771 117.051C74.2654 117.31 74.6035 117.439 74.9913 117.439Z" fill="black"/>
<path d="M112.246 120.273V107.545H113.061V120.273H112.246ZM114.408 111.746C114.369 111.345 114.198 111.034 113.896 110.812C113.595 110.59 113.185 110.479 112.668 110.479C112.317 110.479 112.02 110.528 111.778 110.628C111.536 110.724 111.351 110.858 111.222 111.031C111.096 111.203 111.033 111.398 111.033 111.617C111.026 111.799 111.064 111.959 111.147 112.094C111.233 112.23 111.351 112.348 111.5 112.447C111.649 112.544 111.821 112.628 112.017 112.701C112.213 112.771 112.421 112.83 112.643 112.88L113.558 113.099C114.002 113.198 114.41 113.331 114.781 113.496C115.152 113.662 115.474 113.866 115.746 114.108C116.018 114.35 116.228 114.635 116.377 114.963C116.53 115.291 116.607 115.667 116.611 116.092C116.607 116.715 116.448 117.255 116.134 117.712C115.822 118.166 115.371 118.519 114.781 118.771C114.195 119.02 113.487 119.144 112.658 119.144C111.836 119.144 111.121 119.018 110.511 118.766C109.904 118.514 109.43 118.142 109.089 117.648C108.751 117.151 108.573 116.536 108.557 115.803H110.64C110.663 116.145 110.761 116.43 110.933 116.658C111.109 116.884 111.343 117.054 111.634 117.17C111.929 117.283 112.262 117.339 112.634 117.339C112.998 117.339 113.315 117.286 113.583 117.18C113.855 117.074 114.065 116.927 114.214 116.738C114.364 116.549 114.438 116.332 114.438 116.087C114.438 115.858 114.37 115.666 114.234 115.51C114.102 115.354 113.906 115.222 113.648 115.112C113.393 115.003 113.079 114.903 112.708 114.814L111.599 114.536C110.741 114.327 110.063 114 109.566 113.556C109.069 113.112 108.822 112.514 108.825 111.761C108.822 111.145 108.986 110.606 109.317 110.146C109.652 109.685 110.111 109.325 110.695 109.067C111.278 108.808 111.941 108.679 112.683 108.679C113.439 108.679 114.098 108.808 114.662 109.067C115.229 109.325 115.67 109.685 115.984 110.146C116.299 110.606 116.462 111.14 116.472 111.746H114.408ZM122.429 108.818V119H120.276V110.862H120.216L117.885 112.323V110.414L120.405 108.818H122.429ZM128.567 119.139C127.865 119.139 127.238 119.01 126.688 118.751C126.141 118.493 125.707 118.137 125.386 117.683C125.064 117.228 124.897 116.708 124.884 116.121H126.972C126.995 116.516 127.161 116.836 127.469 117.081C127.777 117.326 128.143 117.449 128.567 117.449C128.906 117.449 129.204 117.374 129.462 117.225C129.724 117.073 129.928 116.862 130.074 116.594C130.223 116.322 130.298 116.01 130.298 115.659C130.298 115.301 130.221 114.986 130.069 114.714C129.92 114.443 129.713 114.231 129.447 114.078C129.182 113.926 128.879 113.848 128.538 113.844C128.239 113.844 127.949 113.906 127.668 114.028C127.389 114.151 127.172 114.318 127.016 114.531L125.102 114.188L125.585 108.818H131.809V110.578H127.359L127.096 113.129H127.156C127.335 112.877 127.605 112.668 127.966 112.502C128.327 112.336 128.732 112.254 129.179 112.254C129.792 112.254 130.339 112.398 130.82 112.686C131.3 112.974 131.68 113.371 131.958 113.874C132.237 114.375 132.374 114.951 132.371 115.604C132.374 116.29 132.215 116.9 131.893 117.434C131.575 117.964 131.129 118.382 130.556 118.687C129.986 118.988 129.323 119.139 128.567 119.139Z" fill="black"/>
<path d="M162.246 120.273V107.545H163.061V120.273H162.246ZM164.408 111.746C164.369 111.345 164.198 111.034 163.896 110.812C163.595 110.59 163.185 110.479 162.668 110.479C162.317 110.479 162.02 110.528 161.778 110.628C161.536 110.724 161.351 110.858 161.222 111.031C161.096 111.203 161.033 111.398 161.033 111.617C161.026 111.799 161.064 111.959 161.147 112.094C161.233 112.23 161.351 112.348 161.5 112.447C161.649 112.544 161.821 112.628 162.017 112.701C162.213 112.771 162.421 112.83 162.643 112.88L163.558 113.099C164.002 113.198 164.41 113.331 164.781 113.496C165.152 113.662 165.474 113.866 165.746 114.108C166.018 114.35 166.228 114.635 166.377 114.963C166.53 115.291 166.607 115.667 166.611 116.092C166.607 116.715 166.448 117.255 166.134 117.712C165.822 118.166 165.371 118.519 164.781 118.771C164.195 119.02 163.487 119.144 162.658 119.144C161.836 119.144 161.121 119.018 160.511 118.766C159.904 118.514 159.43 118.142 159.089 117.648C158.751 117.151 158.573 116.536 158.557 115.803H160.64C160.663 116.145 160.761 116.43 160.933 116.658C161.109 116.884 161.343 117.054 161.634 117.17C161.929 117.283 162.262 117.339 162.634 117.339C162.998 117.339 163.315 117.286 163.583 117.18C163.855 117.074 164.065 116.927 164.214 116.738C164.364 116.549 164.438 116.332 164.438 116.087C164.438 115.858 164.37 115.666 164.234 115.51C164.102 115.354 163.906 115.222 163.648 115.112C163.393 115.003 163.079 114.903 162.708 114.814L161.599 114.536C160.741 114.327 160.063 114 159.566 113.556C159.069 113.112 158.822 112.514 158.825 111.761C158.822 111.145 158.986 110.606 159.317 110.146C159.652 109.685 160.111 109.325 160.695 109.067C161.278 108.808 161.941 108.679 162.683 108.679C163.439 108.679 164.098 108.808 164.662 109.067C165.229 109.325 165.67 109.685 165.984 110.146C166.299 110.606 166.462 111.14 166.472 111.746H164.408ZM171.763 119.139C171.02 119.139 170.359 119.012 169.779 118.756C169.202 118.498 168.747 118.143 168.412 117.692C168.08 117.238 167.91 116.715 167.9 116.121H170.067C170.081 116.37 170.162 116.589 170.311 116.778C170.463 116.963 170.666 117.107 170.917 117.21C171.169 117.313 171.453 117.364 171.768 117.364C172.096 117.364 172.386 117.306 172.638 117.19C172.89 117.074 173.087 116.914 173.229 116.708C173.372 116.503 173.443 116.266 173.443 115.997C173.443 115.725 173.367 115.485 173.214 115.276C173.065 115.064 172.85 114.898 172.568 114.779C172.29 114.66 171.958 114.6 171.574 114.6H170.624V113.019H171.574C171.898 113.019 172.185 112.963 172.434 112.85C172.686 112.737 172.881 112.582 173.02 112.383C173.16 112.181 173.229 111.945 173.229 111.677C173.229 111.422 173.168 111.198 173.045 111.006C172.926 110.81 172.757 110.658 172.538 110.548C172.323 110.439 172.071 110.384 171.782 110.384C171.491 110.384 171.224 110.437 170.982 110.543C170.74 110.646 170.546 110.794 170.4 110.986C170.255 111.178 170.177 111.403 170.167 111.662H168.104C168.113 111.075 168.281 110.558 168.606 110.111C168.93 109.663 169.368 109.314 169.918 109.062C170.472 108.807 171.096 108.679 171.792 108.679C172.495 108.679 173.11 108.807 173.637 109.062C174.164 109.317 174.573 109.662 174.865 110.096C175.16 110.527 175.306 111.011 175.302 111.548C175.306 112.118 175.128 112.593 174.77 112.974C174.416 113.356 173.953 113.598 173.383 113.7V113.78C174.132 113.876 174.702 114.136 175.094 114.56C175.488 114.981 175.684 115.508 175.68 116.141C175.684 116.721 175.516 117.237 175.178 117.688C174.843 118.138 174.381 118.493 173.791 118.751C173.201 119.01 172.525 119.139 171.763 119.139ZM181.22 119.224C180.365 119.22 179.629 119.01 179.012 118.592C178.399 118.175 177.927 117.57 177.596 116.778C177.267 115.986 177.105 115.033 177.108 113.919C177.108 112.809 177.272 111.862 177.6 111.08C177.932 110.298 178.404 109.703 179.017 109.295C179.634 108.884 180.368 108.679 181.22 108.679C182.072 108.679 182.804 108.884 183.417 109.295C184.034 109.706 184.508 110.303 184.839 111.085C185.171 111.864 185.335 112.809 185.331 113.919C185.331 115.036 185.166 115.991 184.834 116.783C184.506 117.575 184.035 118.18 183.422 118.597C182.809 119.015 182.075 119.224 181.22 119.224ZM181.22 117.439C181.803 117.439 182.269 117.146 182.617 116.559C182.965 115.972 183.137 115.092 183.134 113.919C183.134 113.147 183.054 112.504 182.895 111.99C182.739 111.476 182.517 111.09 182.229 110.832C181.944 110.573 181.608 110.444 181.22 110.444C180.64 110.444 180.176 110.734 179.828 111.314C179.48 111.894 179.304 112.762 179.301 113.919C179.301 114.701 179.379 115.354 179.534 115.878C179.694 116.398 179.917 116.789 180.206 117.051C180.494 117.31 180.832 117.439 181.22 117.439Z" fill="#409EFF"/>
</svg>
